{"glyphs":{"0":{"ha":778,"x_min":143,"x_max":846,"o":"m 190 564 q 214 640 190 564 q 338 824 238 717 q 573 931 439 931 q 776 863 707 931 q 846 665 846 796 q 796 340 846 493 q 644 87 746 188 q 413 -14 543 -14 q 213 53 282 -14 q 143 246 143 119 q 190 564 143 411 m 571 856 q 421 796 489 856 q 313 643 353 736 q 229 256 229 450 q 413 61 229 61 q 563 117 494 61 q 672 263 631 174 q 758 653 758 451 q 571 856 758 856 z "},"1":{"ha":778,"x_min":333,"x_max":736,"o":"m 333 735 l 661 918 l 736 918 l 525 0 l 440 0 l 626 813 l 356 664 l 333 735 z "},"2":{"ha":778,"x_min":94,"x_max":832,"o":"m 486 383 q 683 569 619 494 q 746 719 746 644 q 700 825 746 793 q 561 857 654 857 q 342 833 458 857 l 301 825 l 310 893 q 575 932 450 932 q 832 732 832 932 q 767 546 832 631 q 575 361 701 461 l 219 75 l 699 75 l 681 0 l 94 0 l 111 69 l 486 383 z "},"3":{"ha":778,"x_min":104,"x_max":822,"o":"m 581 931 q 822 746 822 931 q 628 488 822 561 q 714 421 685 464 q 743 301 743 378 q 638 72 743 157 q 374 -14 533 -14 q 248 -2 315 -14 q 142 22 181 10 l 104 33 l 124 99 q 384 61 271 61 q 577 126 497 61 q 657 296 657 190 q 486 442 657 440 l 306 442 l 324 511 l 504 514 q 658 576 582 514 q 735 725 735 638 q 694 824 735 793 q 583 856 654 856 q 339 835 454 856 l 301 828 l 310 893 q 581 931 444 931 z "},"4":{"ha":778,"x_min":110,"x_max":771,"o":"m 511 -1 l 553 176 l 110 176 l 125 242 l 575 917 l 669 917 l 218 250 l 569 250 l 642 563 l 726 563 l 654 250 l 771 250 l 754 176 l 638 176 l 596 -1 l 511 -1 z "},"5":{"ha":778,"x_min":100,"x_max":871,"o":"m 533 574 q 771 376 771 574 q 659 101 771 213 q 386 -11 547 -11 q 142 22 272 -11 l 100 32 l 122 101 q 392 64 275 64 q 597 152 510 64 q 683 365 683 240 q 513 497 683 497 q 408 481 467 497 q 314 450 349 465 l 278 433 l 208 446 l 354 917 l 871 917 l 854 842 l 407 842 l 300 510 q 533 574 433 574 z "},"6":{"ha":778,"x_min":160,"x_max":876,"o":"m 851 833 q 656 856 739 856 q 519 833 572 856 q 429 778 467 811 q 361 697 392 744 q 278 508 311 619 q 538 571 411 571 q 726 514 665 571 q 786 354 786 457 q 688 87 786 188 q 418 -14 590 -14 q 226 67 293 -14 q 160 299 160 147 q 236 631 160 469 q 331 781 275 714 q 470 889 386 847 q 653 931 554 931 q 844 911 742 931 l 876 904 l 851 833 m 518 494 q 400 479 464 494 q 300 450 336 464 l 263 435 q 247 288 247 389 q 290 124 247 186 q 419 61 333 61 q 626 138 554 61 q 699 335 699 215 q 656 456 699 417 q 518 494 614 494 z "},"7":{"ha":778,"x_min":214,"x_max":872,"o":"m 307 840 l 325 917 l 872 917 l 840 778 l 290 -15 l 214 11 l 757 790 l 768 840 l 307 840 z "},"8":{"ha":778,"x_min":92,"x_max":888,"o":"m 310 836 q 332 858 310 836 q 432 906 354 879 q 631 932 510 932 q 819 883 751 932 q 888 747 888 835 q 826 585 888 660 q 657 481 765 511 q 763 408 735 451 q 792 319 792 365 q 782 235 792 272 q 744 153 772 199 q 673 72 717 107 q 551 11 629 36 q 375 -14 474 -14 q 92 176 92 -14 q 332 481 92 382 q 245 548 268 513 q 222 638 222 583 q 244 743 222 693 q 310 836 265 793 m 183 189 q 237 94 183 128 q 383 61 290 61 q 538 85 475 61 q 633 144 600 108 q 703 288 703 219 q 669 387 703 357 q 556 439 635 417 l 411 439 q 249 352 315 413 q 183 189 183 292 m 592 856 q 377 794 446 856 q 308 646 308 732 q 335 568 308 600 q 429 513 363 536 l 574 513 q 753 617 688 540 q 794 728 794 665 q 592 856 794 856 z "},"9":{"ha":778,"x_min":108,"x_max":825,"o":"m 596 931 q 825 663 825 931 q 804 483 825 583 q 633 106 757 225 q 331 -14 510 -14 q 142 8 233 -14 l 108 15 l 138 90 q 351 65 243 65 q 704 403 617 65 q 433 350 532 350 q 244 417 303 350 q 206 544 206 464 q 213 621 206 579 q 344 843 239 756 q 596 931 450 931 m 747 644 q 576 853 747 853 q 397 791 475 853 q 299 625 319 729 q 292 564 292 592 q 460 428 292 428 q 678 465 543 428 l 724 478 q 747 644 747 571 z "}," ":{"ha":306,"x_min":0,"x_max":0,"o":""},"!":{"ha":272,"x_min":97,"x_max":401,"o":"m 167 310 l 318 972 l 401 972 l 240 310 l 167 310 m 97 0 l 129 139 l 214 139 l 182 0 l 97 0 z "},"\"":{"ha":436,"x_min":288,"x_max":524,"o":"m 449 658 l 374 658 l 444 965 l 524 965 l 449 658 m 363 658 l 288 658 l 358 965 l 438 965 l 363 658 z "},"#":{"ha":778,"x_min":92,"x_max":899,"o":"m 796 256 l 638 256 l 575 0 l 497 0 l 560 256 l 328 256 l 265 0 l 188 0 l 250 256 l 92 256 l 110 328 l 268 328 l 335 600 l 176 600 l 194 672 l 353 672 l 418 926 l 496 926 l 431 672 l 663 672 l 728 926 l 806 926 l 740 672 l 899 672 l 881 600 l 722 600 l 656 328 l 814 328 l 796 256 m 578 328 l 644 600 l 413 600 l 346 328 l 578 328 z "},"$":{"ha":778,"x_min":133,"x_max":840,"o":"m 601 933 l 642 932 l 701 1090 l 767 1090 l 704 925 q 822 903 758 918 l 840 899 l 825 836 q 676 856 751 849 l 543 504 q 682 429 642 469 q 722 304 722 389 q 635 72 722 157 q 397 -14 547 -14 q 344 -11 381 -14 l 286 -167 l 225 -167 l 285 -7 l 133 17 l 149 83 q 313 64 231 71 l 458 449 q 319 522 361 482 q 276 643 276 563 q 365 857 276 781 q 601 933 453 933 m 639 299 q 613 378 639 353 q 514 431 588 404 l 372 60 l 403 60 q 576 124 514 60 q 639 299 639 188 m 360 649 q 388 573 360 599 q 486 522 415 547 l 614 860 l 596 860 q 423 806 486 860 q 360 649 360 753 z "},"%":{"ha":778,"x_min":221,"x_max":786,"o":"m 413 914 q 306 799 333 914 q 292 719 292 747 q 347 651 292 651 q 416 684 390 651 q 456 772 442 717 q 469 854 469 826 q 413 914 469 914 m 231 8 l 708 981 l 769 964 l 292 -7 l 231 8 m 232 786 q 428 975 279 975 q 540 865 540 975 q 529 785 540 831 q 453 639 504 688 q 332 590 401 590 q 236 639 263 590 q 221 703 221 665 q 232 786 221 740 m 698 49 q 672 24 698 49 q 576 0 646 0 q 464 115 464 0 q 475 196 464 150 q 671 385 522 385 q 785 275 785 385 q 774 194 785 240 q 698 49 750 97 m 713 261 q 656 324 713 324 q 588 292 614 324 q 549 208 563 261 q 536 128 536 156 q 590 61 536 61 q 703 194 669 61 q 713 261 713 233 z "},"&":{"ha":879,"x_min":108,"x_max":876,"o":"m 619 979 q 806 818 806 979 q 736 635 806 710 q 526 507 667 560 l 692 278 q 778 469 744 364 l 860 469 q 740 218 819 333 l 876 44 l 818 -8 l 689 157 q 364 -14 554 -14 q 169 40 231 -14 q 108 219 108 93 q 176 428 108 344 q 397 569 243 511 q 361 704 361 644 q 430 906 361 832 q 619 979 499 979 m 374 61 q 643 215 536 61 l 432 511 q 249 393 301 464 q 196 210 196 322 q 374 61 196 61 m 615 907 q 490 850 533 907 q 447 710 447 793 q 492 561 447 626 q 667 669 614 610 q 719 814 719 728 q 615 907 719 907 z "},"'":{"ha":233,"x_min":229,"x_max":379,"o":"m 304 658 l 229 658 l 300 965 l 379 965 l 304 658 z "},"(":{"ha":314,"x_min":122,"x_max":514,"o":"m 242 407 q 208 167 208 269 q 222 -136 208 -25 l 228 -172 l 150 -172 q 122 111 122 -56 q 154 416 122 278 q 232 661 186 554 q 401 992 328 883 l 433 1039 l 514 1039 q 242 407 322 742 z "},")":{"ha":313,"x_min":0,"x_max":392,"o":"m 272 468 q 306 708 306 606 q 292 1011 306 900 l 286 1047 l 364 1047 q 392 764 392 931 q 360 459 392 597 q 282 214 328 321 q 113 -117 186 -8 l 81 -164 l 0 -164 q 272 468 192 133 z "},"*":{"ha":571,"x_min":246,"x_max":678,"o":"m 678 714 l 492 714 l 549 538 l 490 519 l 432 697 l 282 588 l 246 636 l 397 746 l 247 856 l 285 906 l 435 796 l 492 972 l 551 953 l 494 775 l 678 775 l 678 714 z "},"+":{"ha":778,"x_min":158,"x_max":779,"o":"m 158 310 l 158 388 l 428 388 l 428 667 l 507 667 l 507 388 l 779 388 l 779 310 l 507 310 l 507 28 l 428 28 l 428 310 l 158 310 z "},",":{"ha":257,"x_min":-3,"x_max":219,"o":"m 65 -179 l -3 -179 l 128 139 l 219 139 l 65 -179 z "},"-":{"ha":492,"x_min":151,"x_max":513,"o":"m 151 333 l 171 411 l 513 411 l 493 333 l 151 333 z "},".":{"ha":239,"x_min":78,"x_max":194,"o":"m 78 0 l 110 139 l 194 139 l 163 0 l 78 0 z "},"/":{"ha":564,"x_min":60,"x_max":731,"o":"m 138 -10 l 60 19 l 651 978 l 731 949 l 138 -10 z "},":":{"ha":242,"x_min":78,"x_max":303,"o":"m 186 469 l 218 608 l 303 608 l 271 469 l 186 469 m 78 0 l 110 139 l 194 139 l 163 0 l 78 0 z "},";":{"ha":288,"x_min":14,"x_max":331,"o":"m 14 -179 l 144 139 l 236 139 l 82 -179 l 14 -179 m 214 469 l 246 608 l 331 608 l 299 469 l 214 469 z "},"<":{"ha":778,"x_min":144,"x_max":728,"o":"m 728 588 l 229 350 l 728 108 l 728 19 l 144 311 l 144 386 l 728 675 l 728 588 z "},"=":{"ha":778,"x_min":171,"x_max":767,"o":"m 171 433 l 171 511 l 767 511 l 767 433 l 171 433 m 171 185 l 171 263 l 767 263 l 767 185 l 171 185 z "},">":{"ha":778,"x_min":207,"x_max":790,"o":"m 706 350 l 207 588 l 207 675 l 790 386 l 790 311 l 207 19 l 207 108 l 706 350 z "},"?":{"ha":569,"x_min":203,"x_max":693,"o":"m 477 979 q 525 979 477 979 q 633 937 574 979 q 693 815 693 894 q 670 685 693 736 q 604 593 647 635 q 462 472 561 551 q 347 322 363 393 l 336 268 l 257 268 q 267 344 260 308 q 410 532 285 436 q 566 676 528 626 q 604 801 604 726 q 454 901 604 901 q 286 882 375 901 l 254 875 l 258 944 q 477 979 381 979 m 203 1 l 233 144 l 319 144 l 288 1 l 203 1 z "},"@":{"ha":1288,"x_min":122,"x_max":1351,"o":"m 888 999 q 1110 968 1017 999 q 1256 885 1204 938 q 1351 617 1351 786 q 1322 403 1351 529 q 1257 191 1292 278 q 1180 60 1222 104 q 1097 1 1138 17 q 997 -14 1056 -14 q 865 68 878 -14 q 600 -14 701 -14 q 492 15 532 -14 q 444 91 453 43 q 435 161 435 139 q 446 290 435 224 q 799 708 519 708 q 1053 675 874 708 q 982 372 1026 574 q 938 128 938 169 q 955 76 938 88 q 1019 65 972 65 q 1100 89 1065 65 q 1174 194 1135 113 q 1240 395 1213 275 q 1270 556 1268 515 q 1272 631 1272 596 q 1256 725 1272 665 q 1197 828 1240 785 q 872 924 1104 924 q 458 794 607 924 q 235 365 308 664 q 206 154 206 247 q 624 -201 206 -201 l 813 -189 l 799 -264 q 604 -278 667 -278 q 364 -239 464 -278 q 213 -137 264 -200 q 143 3 163 -75 q 124 125 124 82 q 126 219 124 168 q 151 365 129 269 q 405 854 232 710 q 888 999 578 999 m 622 64 q 854 140 713 64 q 956 614 861 219 q 793 635 878 635 q 626 548 686 635 q 529 289 565 461 q 517 188 517 231 q 619 64 517 64 q 622 64 621 64 z "},"A":{"ha":771,"x_min":38,"x_max":738,"o":"m 38 0 l 531 965 l 706 965 l 738 0 l 653 0 l 642 265 l 261 265 l 124 0 l 38 0 m 579 889 l 299 340 l 642 340 l 624 889 l 579 889 z "},"B":{"ha":803,"x_min":113,"x_max":867,"o":"m 640 965 q 810 922 754 965 q 867 778 867 879 q 814 604 867 676 q 681 500 761 532 q 772 439 742 478 q 803 333 803 400 q 708 90 803 179 q 438 0 613 0 l 113 0 l 335 965 l 640 965 m 536 456 l 303 456 l 215 75 l 456 75 q 646 144 578 75 q 714 332 714 213 q 667 428 714 401 q 536 456 621 456 m 625 890 l 401 890 l 319 531 l 550 531 q 715 599 651 531 q 779 769 779 668 q 743 864 779 838 q 625 890 707 890 z "},"C":{"ha":703,"x_min":160,"x_max":874,"o":"m 424 -14 q 160 263 160 -14 q 233 642 160 460 q 327 812 272 738 q 465 933 382 886 q 644 979 547 979 q 840 956 740 979 l 874 949 l 854 879 q 644 901 742 901 q 469 841 546 901 q 347 685 393 781 q 249 265 249 483 q 294 113 249 163 q 436 64 339 64 q 629 81 540 64 l 661 88 l 657 17 q 424 -14 533 -14 z "},"D":{"ha":843,"x_min":113,"x_max":901,"o":"m 443 0 l 113 0 l 335 965 l 647 965 q 839 897 776 965 q 901 679 901 828 q 831 315 901 488 q 611 43 753 121 q 443 0 535 0 m 724 290 q 745 336 724 290 q 790 484 767 382 q 813 688 813 586 q 770 839 813 789 q 631 889 728 889 l 403 889 l 217 76 l 457 76 q 612 137 542 76 q 724 290 682 197 z "},"E":{"ha":704,"x_min":113,"x_max":867,"o":"m 113 0 l 335 965 l 867 965 l 849 889 l 403 889 l 319 531 l 689 531 l 671 454 l 303 454 l 215 76 l 661 76 l 643 0 l 113 0 z "},"F":{"ha":671,"x_min":113,"x_max":854,"o":"m 113 0 l 335 965 l 854 965 l 836 889 l 403 889 l 310 486 l 682 486 l 664 411 l 292 411 l 197 0 l 113 0 z "},"G":{"ha":796,"x_min":161,"x_max":926,"o":"m 444 -14 q 161 253 161 -14 q 278 742 161 524 q 433 914 336 849 q 651 979 529 979 q 889 949 768 979 l 926 939 l 904 872 q 653 903 764 903 q 465 840 543 903 q 342 678 388 778 q 250 251 250 475 q 453 63 250 63 q 614 81 531 63 l 642 88 l 719 418 l 560 418 l 576 492 l 822 492 l 713 25 q 444 -14 583 -14 z "},"H":{"ha":867,"x_min":113,"x_max":978,"o":"m 669 0 l 772 447 l 300 447 l 197 0 l 113 0 l 335 965 l 421 965 l 318 524 l 790 524 l 893 965 l 978 965 l 756 0 l 669 0 z "},"I":{"ha":310,"x_min":113,"x_max":421,"o":"m 113 0 l 335 965 l 421 965 l 197 0 l 113 0 z "},"J":{"ha":361,"x_min":10,"x_max":476,"o":"m 476 965 l 290 158 q 235 -13 260 31 q 182 -71 211 -57 q 10 -99 124 -99 l 24 -22 q 148 12 117 -21 q 207 168 179 44 l 392 965 l 476 965 z "},"K":{"ha":717,"x_min":113,"x_max":913,"o":"m 600 0 l 444 438 l 297 435 l 197 0 l 113 0 l 335 965 l 421 965 l 315 511 l 451 514 l 815 965 l 913 965 l 519 478 l 690 0 l 600 0 z "},"L":{"ha":606,"x_min":113,"x_max":613,"o":"m 596 0 l 113 0 l 335 965 l 421 965 l 215 76 l 613 76 l 596 0 z "},"M":{"ha":1081,"x_min":113,"x_max":1192,"o":"m 113 0 l 335 965 l 486 965 l 561 121 l 1039 965 l 1192 965 l 968 0 l 882 0 l 1089 889 l 1074 889 l 592 32 l 499 32 l 418 889 l 403 889 l 197 0 l 113 0 z "},"N":{"ha":868,"x_min":113,"x_max":979,"o":"m 113 0 l 335 965 l 496 965 l 664 85 l 693 85 l 896 965 l 979 965 l 757 0 l 601 0 l 429 883 l 399 883 l 194 0 l 113 0 z "},"O":{"ha":876,"x_min":163,"x_max":935,"o":"m 250 276 q 299 111 250 160 q 454 63 347 63 q 635 121 561 63 q 791 363 736 201 q 846 688 846 524 q 794 851 846 799 q 643 903 743 903 q 472 847 543 903 q 309 599 368 767 q 250 276 250 432 m 935 692 q 875 335 935 504 q 706 76 815 167 q 449 -14 597 -14 q 232 53 301 -14 q 163 285 163 119 q 220 615 163 450 q 387 880 278 781 q 638 979 496 979 q 935 692 935 979 z "},"P":{"ha":760,"x_min":113,"x_max":869,"o":"m 508 335 l 275 335 l 197 0 l 113 0 l 335 965 l 646 965 q 816 911 763 965 q 869 747 869 857 q 775 450 869 565 q 508 335 681 335 m 522 411 q 715 507 649 411 q 781 747 781 603 q 747 853 781 818 q 635 888 713 888 l 403 888 l 293 411 l 522 411 z "},"Q":{"ha":876,"x_min":163,"x_max":935,"o":"m 456 -14 q 232 53 301 -14 q 163 285 163 119 q 220 615 163 450 q 387 880 278 781 q 638 979 496 979 q 935 692 935 979 q 875 336 935 504 q 636 29 797 115 l 701 -172 l 621 -199 l 558 0 q 456 -14 506 -14 m 250 276 q 299 111 250 160 q 454 63 347 63 q 635 121 561 63 q 791 363 736 201 q 846 688 846 524 q 794 851 846 799 q 643 903 743 903 q 472 847 543 903 q 309 599 368 767 q 250 276 250 432 z "},"R":{"ha":786,"x_min":113,"x_max":874,"o":"m 635 965 q 815 913 756 965 q 874 743 874 861 q 796 498 874 588 q 618 386 718 408 l 731 0 l 644 0 l 538 375 l 285 375 l 197 0 l 113 0 l 335 965 l 635 965 m 785 740 q 747 856 785 822 q 624 890 708 890 l 403 890 l 301 450 l 526 450 q 714 531 643 450 q 785 740 785 611 z "},"S":{"ha":694,"x_min":79,"x_max":821,"o":"m 806 878 q 555 903 661 903 q 383 846 449 903 q 317 681 317 789 q 354 594 317 621 q 501 532 392 568 q 653 453 610 496 q 697 319 697 410 q 605 76 697 165 q 356 -14 513 -14 q 119 11 250 -14 l 79 18 l 94 88 q 368 63 257 63 q 544 129 479 63 q 610 314 610 196 q 578 403 610 376 q 438 465 546 431 q 280 543 331 500 q 229 675 229 586 q 322 899 229 819 q 571 979 415 979 q 786 953 679 979 l 821 943 l 806 878 z "},"T":{"ha":656,"x_min":218,"x_max":861,"o":"m 218 889 l 236 965 l 861 965 l 843 889 l 574 889 l 368 0 l 283 0 l 488 889 l 218 889 z "},"U":{"ha":824,"x_min":160,"x_max":942,"o":"m 244 193 q 438 64 244 64 q 613 117 554 64 q 699 286 672 171 l 856 965 l 942 965 l 785 285 q 667 59 749 132 q 444 -14 585 -14 q 160 183 160 -14 q 175 303 160 246 l 328 965 l 413 965 l 258 296 q 244 193 244 240 z "},"V":{"ha":753,"x_min":256,"x_max":935,"o":"m 849 965 l 935 965 l 469 0 l 275 0 l 256 965 l 342 965 l 354 76 l 421 76 l 849 965 z "},"W":{"ha":1139,"x_min":228,"x_max":1313,"o":"m 264 965 l 349 965 l 308 78 l 350 78 l 739 951 l 831 951 l 810 78 l 849 78 l 1226 965 l 1313 965 l 897 0 l 735 0 l 757 818 l 394 0 l 228 0 l 264 965 z "},"X":{"ha":711,"x_min":21,"x_max":911,"o":"m 344 965 l 483 547 l 815 965 l 911 965 l 518 476 l 681 0 l 593 0 l 453 414 l 117 0 l 21 0 l 417 483 l 257 965 l 344 965 z "},"Y":{"ha":681,"x_min":240,"x_max":882,"o":"m 882 965 l 472 414 l 375 0 l 293 0 l 390 422 l 240 965 l 326 965 l 450 497 l 790 965 l 882 965 z "},"Z":{"ha":689,"x_min":53,"x_max":857,"o":"m 261 889 l 279 965 l 857 965 l 826 836 l 171 110 l 163 76 l 649 76 l 631 0 l 53 0 l 82 125 l 736 850 l 746 889 l 261 889 z "},"[":{"ha":393,"x_min":47,"x_max":590,"o":"m 331 1038 l 590 1038 l 574 964 l 397 964 l 149 -96 l 325 -96 l 306 -169 l 47 -169 l 331 1038 z "},"\\":{"ha":571,"x_min":263,"x_max":532,"o":"m 532 14 l 444 0 l 263 960 l 350 974 l 532 14 z "},"]":{"ha":393,"x_min":4,"x_max":547,"o":"m 264 -168 l 4 -168 l 21 -94 l 197 -94 l 446 965 l 269 965 l 289 1039 l 547 1039 l 264 -168 z "},"^":{"ha":778,"x_min":182,"x_max":779,"o":"m 689 444 l 476 833 l 272 444 l 182 444 l 438 917 l 514 917 l 779 444 l 689 444 z "},"_":{"ha":836,"x_min":63,"x_max":704,"o":"m 81 -110 l 704 -110 l 683 -193 l 63 -193 l 81 -110 z "},"`":{"ha":719,"x_min":401,"x_max":686,"o":"m 442 1019 l 686 889 l 647 832 l 401 954 l 442 1019 z "},"a":{"ha":685,"x_min":126,"x_max":744,"o":"m 300 -14 q 126 182 126 -14 q 214 528 126 364 q 324 658 256 607 q 475 708 393 708 q 696 683 550 708 l 744 675 l 639 224 q 606 38 619 146 l 600 1 l 519 -1 q 546 157 540 128 q 531 138 540 150 q 495 97 522 126 q 440 46 468 68 q 374 5 413 24 q 300 -14 335 -14 m 649 614 q 472 635 549 635 q 332 558 394 635 q 241 381 269 482 q 213 201 213 281 q 238 90 213 121 q 315 60 264 60 q 426 108 367 60 q 525 206 486 157 l 564 256 l 649 614 z "},"b":{"ha":683,"x_min":99,"x_max":717,"o":"m 536 708 q 678 654 639 708 q 717 499 717 600 q 667 244 717 376 q 499 22 606 88 q 378 -14 438 -14 q 142 11 271 -14 l 99 19 l 326 1003 l 410 1003 l 314 593 q 348 625 326 606 q 428 676 369 644 q 536 708 486 708 m 196 79 q 367 60 300 60 q 490 112 435 60 q 575 239 546 164 q 631 476 631 389 q 608 599 631 564 q 513 633 585 633 q 416 601 471 633 q 328 536 361 568 l 293 503 l 196 79 z "},"c":{"ha":561,"x_min":132,"x_max":663,"o":"m 639 692 l 663 686 l 642 619 q 494 635 556 635 q 339 569 403 635 q 217 204 217 447 q 253 96 217 132 q 369 60 289 60 q 500 76 418 60 l 526 82 l 522 15 q 344 -14 428 -14 q 132 190 132 -14 q 219 549 132 400 q 335 665 264 622 q 486 708 407 708 q 639 692 565 708 z "},"d":{"ha":685,"x_min":126,"x_max":821,"o":"m 296 -14 q 126 179 126 -14 q 166 420 126 301 q 287 623 206 539 q 472 707 368 707 q 633 689 542 707 l 663 683 l 738 1003 l 821 1003 l 588 0 l 507 0 l 538 136 q 371 3 467 42 q 296 -14 332 -14 m 647 614 q 474 635 554 635 q 331 558 393 635 q 241 379 269 481 q 213 179 213 278 q 321 60 213 60 q 426 104 367 60 q 524 194 486 149 l 561 239 l 647 614 z "},"e":{"ha":636,"x_min":129,"x_max":699,"o":"m 214 196 q 214 165 214 196 q 252 97 214 133 q 346 61 290 61 q 550 86 453 61 l 583 96 l 578 28 q 347 -14 457 -14 q 129 192 129 -14 q 219 538 129 381 q 336 660 263 614 q 503 707 410 707 q 699 549 699 707 q 604 377 699 426 q 308 328 510 328 l 231 328 q 214 196 214 258 m 325 396 q 547 428 478 396 q 615 549 615 461 q 499 636 615 636 q 243 396 317 636 l 325 396 z "},"f":{"ha":424,"x_min":47,"x_max":642,"o":"m 528 1017 q 625 1004 572 1017 l 642 1000 l 625 935 q 517 944 568 944 q 435 903 465 944 q 379 760 404 861 l 363 694 l 560 694 l 540 621 l 347 621 l 203 0 l 119 -312 l 47 -312 l 264 621 l 181 621 l 199 694 l 279 694 l 296 763 q 381 960 329 903 q 528 1017 433 1017 z "},"g":{"ha":644,"x_min":28,"x_max":781,"o":"m 263 -329 q 91 -280 154 -329 q 28 -149 28 -231 q 215 69 28 -31 q 194 122 194 90 q 213 188 194 154 q 250 242 231 222 l 268 263 q 172 419 172 306 q 248 620 172 532 q 450 708 324 708 q 560 692 514 708 l 575 686 l 781 694 l 764 621 l 629 621 q 656 519 656 581 q 578 328 656 415 q 363 240 501 240 l 321 243 q 272 149 272 182 q 298 106 272 117 q 420 84 324 96 q 565 36 517 72 q 613 -76 613 0 q 517 -254 613 -179 q 263 -329 421 -329 m 263 38 q 154 -39 200 6 q 108 -135 108 -83 q 150 -222 108 -187 q 284 -257 192 -257 q 453 -208 376 -257 q 531 -82 531 -160 q 499 -15 531 -35 q 380 15 467 6 q 263 38 293 25 m 374 311 q 524 377 471 311 q 576 508 576 443 q 546 605 576 574 q 437 636 515 636 q 306 570 358 636 q 253 431 253 504 q 374 311 253 311 z "},"h":{"ha":688,"x_min":96,"x_max":707,"o":"m 546 708 q 665 663 624 708 q 707 545 707 617 q 679 353 707 474 l 597 0 l 515 0 l 597 350 q 622 524 622 457 q 519 633 622 633 q 415 590 474 633 q 321 503 357 546 l 285 458 l 179 0 l 96 0 l 328 1003 l 411 1003 l 308 558 q 472 692 379 653 q 546 708 511 708 z "},"i":{"ha":274,"x_min":94,"x_max":401,"o":"m 94 0 l 256 694 l 339 694 l 178 0 l 94 0 m 292 856 l 318 967 l 401 967 l 376 856 l 292 856 z "},"j":{"ha":274,"x_min":-128,"x_max":403,"o":"m 94 0 l 256 694 l 339 694 l 178 0 q 99 -207 142 -157 q -100 -329 57 -257 l -128 -261 q 34 -157 1 -196 q 94 0 67 -118 m 294 857 l 319 965 l 403 965 l 378 857 l 294 857 z "},"k":{"ha":611,"x_min":96,"x_max":743,"o":"m 179 0 l 96 0 l 328 1003 l 411 1003 l 275 413 l 374 415 l 644 694 l 743 694 l 436 375 l 578 0 l 489 0 l 358 343 l 257 342 l 179 0 z "},"l":{"ha":288,"x_min":103,"x_max":417,"o":"m 103 0 l 335 1003 l 417 1003 l 185 0 l 103 0 z "},"m":{"ha":1075,"x_min":94,"x_max":1096,"o":"m 621 524 q 518 633 621 633 q 414 590 472 633 q 319 503 356 547 l 285 460 l 178 0 l 94 0 l 256 694 l 336 694 l 308 560 q 472 692 379 654 q 548 708 510 708 q 617 695 586 708 q 661 663 647 682 q 699 578 692 624 q 740 616 706 586 q 800 664 774 646 q 940 708 868 708 q 1054 663 1013 708 q 1096 549 1096 617 q 1068 353 1096 481 l 986 0 l 903 0 l 985 350 q 1011 519 1011 463 q 908 633 1011 633 q 815 599 867 633 q 732 531 763 565 l 701 497 q 678 353 699 438 l 596 0 l 513 0 l 594 350 q 621 524 621 463 z "},"n":{"ha":686,"x_min":94,"x_max":707,"o":"m 544 708 q 665 663 624 708 q 707 544 707 617 q 679 356 707 472 l 596 0 l 514 0 l 596 350 q 622 524 622 463 q 518 633 622 633 q 414 590 472 633 q 319 503 356 547 l 285 460 l 178 0 l 94 0 l 256 694 l 336 694 l 307 560 q 472 692 376 653 q 544 708 510 708 z "},"o":{"ha":686,"x_min":131,"x_max":713,"o":"m 479 707 q 713 478 713 707 q 615 129 713 272 q 358 -14 517 -14 q 131 206 131 -14 q 230 560 131 413 q 479 707 329 707 m 358 60 q 553 183 478 60 q 628 479 628 306 q 590 592 628 550 q 479 635 553 635 q 289 507 364 635 q 214 206 214 379 q 358 60 214 60 z "},"p":{"ha":683,"x_min":24,"x_max":717,"o":"m 542 708 q 717 511 717 708 q 678 276 717 393 q 558 72 640 158 q 371 -14 476 -14 q 208 6 292 -14 l 181 11 l 106 -312 l 24 -312 l 256 694 l 336 694 l 306 557 q 349 605 318 574 q 407 656 381 636 q 542 708 479 708 m 519 633 q 417 589 476 633 q 321 500 358 544 l 283 454 l 196 81 q 360 60 289 60 q 483 105 432 60 q 567 219 535 150 q 632 508 632 367 q 519 633 632 633 z "},"q":{"ha":682,"x_min":125,"x_max":743,"o":"m 300 -14 q 169 37 213 -14 q 125 194 125 88 q 164 418 125 300 q 285 622 203 536 q 471 707 367 707 q 697 683 551 707 l 743 675 l 517 -303 l 435 -303 l 536 136 q 372 3 464 40 q 300 -14 335 -14 m 646 614 q 474 635 556 635 q 331 560 393 635 q 240 383 269 485 q 211 185 211 282 q 324 60 211 60 q 450 124 379 60 q 544 219 518 185 l 560 239 l 646 614 z "},"r":{"ha":432,"x_min":94,"x_max":574,"o":"m 94 0 l 257 694 l 339 694 l 314 590 q 574 708 447 682 l 553 624 q 342 536 472 604 l 299 514 l 179 0 l 94 0 z "},"s":{"ha":594,"x_min":72,"x_max":671,"o":"m 653 615 q 440 635 524 635 q 308 590 357 635 q 260 483 260 546 q 287 428 260 446 q 408 388 314 410 q 544 336 501 365 q 586 236 586 307 q 502 51 586 115 q 288 -14 418 -14 q 103 8 192 -14 l 72 15 l 88 82 q 301 60 215 60 q 444 100 388 60 q 501 219 501 140 q 472 281 501 264 q 351 320 443 299 q 218 372 260 342 q 176 465 176 401 q 252 639 176 571 q 446 707 328 707 q 638 689 538 707 l 671 682 l 653 615 z "},"t":{"ha":438,"x_min":161,"x_max":576,"o":"m 249 131 q 325 60 249 60 l 436 68 l 431 3 q 297 -14 358 -14 q 198 19 235 -14 q 161 108 161 53 q 185 258 161 164 l 269 621 l 175 621 l 193 694 l 288 694 l 339 907 l 422 907 l 369 694 l 576 694 l 558 621 l 353 621 l 267 254 q 249 131 249 176 z "},"u":{"ha":686,"x_min":139,"x_max":751,"o":"m 301 -14 q 181 32 224 -14 q 139 150 139 78 q 167 339 139 222 l 250 694 l 332 694 l 250 344 q 224 175 224 232 q 328 61 224 61 q 432 104 374 61 q 525 190 490 147 l 561 233 l 668 694 l 751 694 l 590 0 l 510 0 l 539 135 q 375 3 469 42 q 301 -14 336 -14 z "},"v":{"ha":628,"x_min":197,"x_max":751,"o":"m 197 694 l 279 694 l 299 72 l 347 72 l 664 694 l 751 694 l 392 0 l 221 0 l 197 694 z "},"w":{"ha":1004,"x_min":200,"x_max":1119,"o":"m 203 694 l 286 694 l 282 72 l 306 72 l 607 681 l 707 681 l 721 72 l 746 72 l 1035 694 l 1119 694 l 797 0 l 643 0 l 632 574 l 351 0 l 200 0 l 203 694 z "},"x":{"ha":578,"x_min":31,"x_max":710,"o":"m 194 694 l 281 694 l 383 404 l 618 694 l 710 694 l 417 340 l 542 0 l 454 0 l 354 283 l 124 0 l 31 0 l 319 347 l 194 694 z "},"y":{"ha":628,"x_min":147,"x_max":751,"o":"m 197 694 l 279 694 l 299 72 l 346 72 l 664 694 l 751 694 l 232 -311 l 147 -311 l 311 0 l 221 0 l 197 694 z "},"z":{"ha":581,"x_min":54,"x_max":688,"o":"m 196 621 l 215 694 l 688 694 l 672 622 l 168 72 l 544 72 l 528 0 l 54 0 l 67 72 l 569 621 l 196 621 z "},"{":{"ha":443,"x_min":122,"x_max":640,"o":"m 307 310 q 274 166 307 283 q 240 6 240 49 q 374 -97 240 -97 l 353 -175 q 157 -18 157 -169 q 190 147 157 28 q 224 299 224 265 q 122 400 224 367 l 139 469 q 263 528 229 493 q 311 639 296 564 q 322 700 315 657 q 350 831 340 803 q 451 989 385 940 q 640 1043 517 1038 l 626 967 q 483 919 531 961 q 418 790 436 876 q 406 717 418 788 q 388 626 393 646 q 331 499 368 540 q 219 432 294 457 q 307 310 307 397 z "},"|":{"ha":425,"x_min":250,"x_max":333,"o":"m 250 -312 l 250 1003 l 333 1003 l 333 -312 l 250 -312 z "},"}":{"ha":442,"x_min":1,"x_max":519,"o":"m 335 556 q 368 699 335 581 q 401 860 401 817 q 268 963 401 963 l 289 1040 q 485 883 485 1035 q 451 719 485 838 q 418 567 418 600 q 519 465 418 499 l 503 396 q 379 337 413 372 q 331 226 346 301 q 319 164 326 208 q 292 35 301 63 q 191 -124 257 -75 q 1 -178 125 -172 l 15 -101 q 158 -53 111 -96 q 224 75 206 -11 q 236 149 224 78 q 254 239 249 219 q 310 367 274 325 q 422 433 347 408 q 335 556 335 467 z "},"~":{"ha":778,"x_min":178,"x_max":769,"o":"m 613 279 q 467 325 571 279 q 339 371 364 371 q 217 319 292 371 l 193 303 l 178 374 q 338 449 264 449 q 481 403 378 449 q 608 357 583 357 q 731 407 657 357 l 754 424 l 769 354 q 613 279 686 279 z "}," ":{"ha":306,"x_min":0,"x_max":0,"o":""},"¡":{"ha":253,"x_min":21,"x_max":325,"o":"m 256 385 l 104 -278 l 21 -278 l 182 385 l 256 385 m 325 694 l 293 556 l 208 556 l 240 694 l 325 694 z "},"¢":{"ha":778,"x_min":218,"x_max":743,"o":"m 219 225 q 236 344 219 276 q 351 563 274 488 q 536 640 428 638 l 576 813 l 649 813 l 607 640 l 743 626 l 721 551 q 554 563 604 563 q 319 344 374 563 q 304 230 304 272 q 340 160 304 188 q 453 132 375 132 l 631 142 l 614 68 q 471 57 526 57 l 431 -114 l 358 -114 l 399 53 q 219 225 219 56 z "},"£":{"ha":778,"x_min":113,"x_max":838,"o":"m 819 857 q 670 868 721 868 q 598 862 619 868 q 560 838 576 856 q 533 807 543 821 q 511 760 522 793 q 479 644 499 722 l 463 576 l 744 576 l 728 503 l 444 503 l 349 74 l 557 74 l 664 97 l 664 25 l 553 0 l 113 0 l 129 74 l 263 74 l 360 503 l 257 503 l 275 576 l 378 576 l 394 654 q 483 875 431 807 q 654 943 536 943 q 808 928 728 943 l 838 922 l 819 857 z "},"¤":{"ha":778,"x_min":171,"x_max":767,"o":"m 610 150 q 468 104 546 104 q 326 150 390 104 l 229 51 l 171 111 l 268 207 q 222 349 222 271 q 268 492 222 428 l 171 589 l 229 649 l 326 550 q 468 594 390 594 q 610 550 546 594 l 708 649 l 767 589 l 668 490 q 713 349 713 426 q 668 208 713 271 l 767 111 l 708 51 l 610 150 m 351 233 q 376 209 351 233 q 469 185 400 185 q 586 233 539 185 q 633 349 633 281 q 586 466 633 418 q 469 514 539 514 q 351 467 400 514 q 303 350 303 419 q 351 233 303 281 z "},"¥":{"ha":778,"x_min":149,"x_max":949,"o":"m 197 442 l 214 517 l 407 517 l 247 918 l 339 918 l 500 514 l 839 918 l 949 918 l 608 517 l 796 517 l 779 442 l 549 442 l 528 417 l 503 310 l 749 310 l 731 233 l 485 233 l 429 0 l 346 0 l 400 233 l 149 233 l 167 310 l 417 310 l 442 419 l 436 442 l 197 442 z "},"¦":{"ha":435,"x_min":256,"x_max":339,"o":"m 256 1003 l 339 1003 l 339 482 l 256 482 l 256 1003 m 256 211 l 339 211 l 339 -312 l 256 -312 l 256 211 z "},"§":{"ha":647,"x_min":53,"x_max":751,"o":"m 531 829 q 381 781 433 829 q 329 654 329 733 q 363 583 329 603 q 483 549 396 564 q 660 400 660 517 q 554 169 660 301 q 578 101 578 138 q 570 31 578 64 q 541 -42 563 -1 q 488 -115 519 -82 q 400 -171 456 -149 q 292 -193 344 -193 q 89 -176 200 -193 l 53 -171 l 76 -96 q 299 -115 218 -115 q 436 -58 381 -115 q 492 65 492 0 q 462 127 492 108 q 333 163 432 146 q 193 219 235 181 q 151 314 151 257 q 181 425 151 371 q 269 540 222 503 q 242 642 242 574 q 323 826 242 746 q 546 907 404 907 q 719 892 629 907 l 751 886 l 731 810 q 531 829 593 829 m 264 426 q 251 401 264 426 q 238 339 238 376 q 267 279 238 301 q 378 242 296 257 q 499 206 461 226 q 520 236 503 210 q 556 306 538 263 q 575 383 575 350 q 544 438 575 417 q 439 474 513 460 q 321 507 342 489 q 264 426 290 476 z "},"¨":{"ha":1003,"x_min":346,"x_max":688,"o":"m 346 868 l 372 982 l 440 982 l 414 868 l 346 868 m 594 868 l 619 982 l 688 982 l 661 868 l 594 868 z "},"©":{"ha":896,"x_min":225,"x_max":949,"o":"m 328 336 q 276 390 328 336 q 225 603 225 444 q 328 869 225 761 q 587 978 431 978 q 846 869 743 978 q 949 601 949 760 q 847 335 949 443 q 588 228 744 228 q 328 336 431 228 m 368 830 q 324 783 368 830 q 281 603 281 736 q 368 376 281 469 q 587 282 456 282 q 806 375 718 282 q 894 602 894 468 q 806 830 894 736 q 586 924 717 924 q 368 830 456 924 m 589 386 q 467 439 501 386 q 432 602 432 492 q 467 766 432 713 q 590 819 501 819 q 682 811 646 819 l 696 807 l 692 743 q 587 753 638 753 q 518 718 536 753 q 500 604 500 683 q 519 489 500 525 q 593 453 539 453 l 692 463 l 696 400 q 589 386 642 386 z "},"ª":{"ha":483,"x_min":200,"x_max":571,"o":"m 493 811 q 439 851 493 851 l 283 842 l 292 897 q 460 915 393 915 q 553 886 526 915 q 571 839 571 867 q 564 783 571 811 l 519 592 q 557 567 528 575 l 542 511 q 482 519 500 511 q 450 544 464 526 q 299 511 361 511 q 200 593 200 511 q 206 632 200 611 q 253 716 219 689 q 354 747 288 743 l 482 756 l 490 786 q 493 811 493 800 m 278 610 q 318 574 278 574 q 425 592 365 574 l 446 599 l 469 700 l 356 693 q 281 632 294 689 q 278 610 278 619 z "},"«":{"ha":607,"x_min":121,"x_max":664,"o":"m 664 558 l 638 471 l 449 343 l 575 201 l 551 124 l 364 325 l 379 368 l 664 558 m 421 558 l 394 471 l 206 343 l 332 201 l 308 124 l 121 325 l 136 368 l 421 558 z "},"¬":{"ha":778,"x_min":175,"x_max":765,"o":"m 175 469 l 765 469 l 765 167 l 686 167 l 686 393 l 175 393 l 175 469 z "},"®":{"ha":896,"x_min":225,"x_max":949,"o":"m 328 336 q 276 390 328 336 q 225 603 225 444 q 328 869 225 761 q 587 978 431 978 q 846 869 743 978 q 949 601 949 760 q 847 335 949 443 q 588 228 744 228 q 328 336 431 228 m 368 830 q 324 783 368 830 q 281 603 281 736 q 368 376 281 469 q 587 282 456 282 q 806 375 718 282 q 894 602 894 468 q 806 830 894 736 q 586 924 717 924 q 368 830 456 924 m 506 547 l 506 393 l 439 393 l 439 810 l 582 810 q 701 781 663 810 q 740 681 740 751 q 665 556 740 582 l 747 393 l 675 393 l 600 547 l 506 547 m 504 753 l 504 604 l 597 604 q 656 621 639 604 q 674 678 674 638 q 651 736 674 719 q 579 753 628 753 l 504 753 z "},"¯":{"ha":601,"x_min":322,"x_max":708,"o":"m 322 892 l 338 957 l 708 957 l 692 892 l 322 892 z "},"°":{"ha":778,"x_min":375,"x_max":763,"o":"m 428 646 q 402 672 428 646 q 375 785 375 699 q 428 925 375 871 q 568 979 482 979 q 708 925 654 979 q 763 785 763 871 q 708 646 763 699 q 568 593 654 593 q 428 646 482 593 m 569 919 q 539 919 569 919 q 472 883 508 919 q 436 785 436 846 q 472 688 436 725 q 569 651 508 651 q 667 688 629 651 q 704 785 704 725 q 667 882 704 844 q 569 919 629 919 z "},"±":{"ha":778,"x_min":143,"x_max":764,"o":"m 143 414 l 143 492 l 413 492 l 413 672 l 492 672 l 492 492 l 764 492 l 764 414 l 492 414 l 492 229 l 413 229 l 413 414 l 143 414 m 143 136 l 764 136 l 764 58 l 143 58 l 143 136 z "},"²":{"ha":389,"x_min":199,"x_max":563,"o":"m 481 1000 q 419 1039 481 1039 q 317 1028 382 1039 l 296 1025 l 310 1093 q 451 1110 393 1110 q 561 1029 561 1110 q 428 826 561 929 l 313 732 l 499 732 l 482 664 l 199 664 l 215 731 l 375 860 q 447 924 422 897 q 476 971 471 950 q 481 1000 481 992 z "},"³":{"ha":389,"x_min":196,"x_max":571,"o":"m 479 890 q 531 831 531 874 q 524 783 531 811 q 344 650 492 650 q 218 661 293 650 l 196 665 l 217 731 q 361 719 292 719 q 447 785 431 719 q 451 810 451 799 q 393 853 451 853 l 303 853 l 318 918 l 408 918 q 455 939 431 918 q 486 988 479 960 q 480 1028 493 1015 q 433 1042 467 1042 q 317 1033 375 1042 l 297 1031 l 308 1096 q 451 1110 392 1110 q 569 1032 569 1110 q 536 936 569 983 q 479 890 515 908 z "},"´":{"ha":753,"x_min":388,"x_max":700,"o":"m 396 835 l 388 899 l 690 1029 l 700 956 l 396 835 z "},"µ":{"ha":778,"x_min":64,"x_max":800,"o":"m 283 278 q 272 169 272 219 q 299 90 272 118 q 374 61 326 61 q 481 104 422 61 q 575 190 539 147 l 610 233 l 717 694 l 800 694 l 639 0 l 558 0 l 588 135 q 422 3 518 42 q 350 -14 385 -14 q 228 33 271 -14 l 147 -312 l 64 -312 l 299 694 l 381 694 l 307 382 l 308 382 l 283 278 z "},"¶":{"ha":769,"x_min":204,"x_max":943,"o":"m 204 661 q 293 874 204 776 q 513 972 382 972 l 943 972 l 928 897 l 819 897 l 606 0 l 533 0 l 747 897 l 578 897 l 363 0 l 290 0 l 404 469 q 253 525 303 471 q 204 661 204 579 z "},"·":{"ha":242,"x_min":158,"x_max":278,"o":"m 158 353 l 190 499 l 278 499 l 246 353 l 158 353 z "},"¸":{"ha":1099,"x_min":440,"x_max":697,"o":"m 582 -67 q 697 -142 697 -67 q 693 -172 697 -156 q 549 -287 667 -287 l 440 -279 l 456 -218 q 549 -224 510 -224 q 621 -169 607 -224 q 622 -154 622 -161 q 574 -119 622 -119 l 513 -119 l 543 7 l 594 7 l 575 -67 l 582 -67 z "},"¹":{"ha":389,"x_min":285,"x_max":519,"o":"m 285 1001 l 449 1097 l 519 1097 l 413 664 l 338 664 l 425 1015 l 306 946 l 285 1001 z "},"º":{"ha":472,"x_min":214,"x_max":583,"o":"m 446 914 q 582 810 576 914 q 582 781 582 803 q 572 708 582 758 q 496 556 549 604 q 364 508 443 508 q 215 633 215 508 q 226 715 215 668 q 304 868 253 822 q 446 914 356 914 m 367 579 q 449 609 419 579 q 492 693 479 639 q 504 781 504 747 q 487 830 504 815 q 424 844 469 844 q 349 815 379 844 q 306 729 319 786 q 292 647 292 672 q 367 579 292 579 z "},"»":{"ha":668,"x_min":101,"x_max":706,"o":"m 406 124 l 432 211 l 621 339 l 494 481 l 518 558 l 706 357 l 690 314 l 406 124 m 101 124 l 128 211 l 317 339 l 190 481 l 214 558 l 401 357 l 386 314 l 101 124 z "},"¼":{"ha":811,"x_min":151,"x_max":822,"o":"m 253 1001 l 417 1097 l 488 1097 l 381 664 l 306 664 l 393 1015 l 274 946 l 253 1001 m 229 -10 l 151 19 l 743 978 l 822 949 l 229 -10 m 661 0 l 678 71 l 479 71 l 496 135 l 676 433 l 758 433 l 578 140 l 694 140 l 731 261 l 800 261 l 769 140 l 811 140 l 794 71 l 753 71 l 735 0 l 661 0 z "},"½":{"ha":846,"x_min":151,"x_max":881,"o":"m 253 1001 l 417 1097 l 488 1097 l 381 664 l 306 664 l 393 1015 l 274 946 l 253 1001 m 229 -10 l 151 19 l 743 978 l 822 949 l 229 -10 m 799 336 q 738 375 799 375 q 636 364 700 375 l 614 361 l 628 429 q 769 446 711 446 q 879 365 879 446 q 746 163 879 265 l 631 68 l 817 68 l 800 0 l 517 0 l 533 67 l 693 196 q 765 260 740 233 q 794 307 789 286 q 799 336 799 328 z "},"¾":{"ha":838,"x_min":181,"x_max":851,"o":"m 479 890 q 531 831 531 874 q 524 783 531 811 q 344 650 492 650 q 218 661 293 650 l 196 665 l 217 731 q 361 719 292 719 q 447 785 431 719 q 451 810 451 799 q 393 853 451 853 l 303 853 l 318 918 l 408 918 q 455 939 431 918 q 486 988 479 960 q 480 1028 493 1015 q 433 1042 467 1042 q 317 1033 375 1042 l 297 1031 l 308 1096 q 451 1110 392 1110 q 569 1032 569 1110 q 536 936 569 983 q 479 890 515 908 m 258 -10 l 181 19 l 772 978 l 851 949 l 258 -10 m 690 0 l 707 71 l 508 71 l 525 135 l 706 433 l 788 433 l 607 140 l 724 140 l 760 261 l 829 261 l 799 140 l 840 140 l 824 71 l 782 71 l 764 0 l 690 0 z "},"¿":{"ha":557,"x_min":32,"x_max":522,"o":"m 248 -283 q 200 -283 248 -283 q 92 -241 151 -283 q 32 -119 32 -199 q 55 10 32 -40 q 121 103 78 61 q 264 224 164 144 q 378 374 363 303 l 389 428 l 468 428 q 458 351 465 388 q 315 164 440 260 q 159 19 197 69 q 121 -106 121 -31 q 271 -206 121 -206 q 439 -186 336 -206 l 471 -179 l 467 -249 q 248 -283 344 -283 m 522 694 l 492 551 l 406 551 l 438 694 l 522 694 z "},"À":{"ha":771,"x_min":38,"x_max":740,"o":"m 497 1285 l 740 1153 l 704 1093 l 457 1215 l 497 1285 m 38 0 l 531 965 l 706 965 l 738 0 l 653 0 l 642 265 l 261 265 l 124 0 l 38 0 m 579 889 l 299 340 l 642 340 l 624 889 l 579 889 z "},"Á":{"ha":771,"x_min":38,"x_max":856,"o":"m 550 1097 l 539 1160 l 843 1292 l 856 1219 l 550 1097 m 38 0 l 531 965 l 706 965 l 738 0 l 653 0 l 642 265 l 261 265 l 124 0 l 38 0 m 579 889 l 299 340 l 642 340 l 624 889 l 579 889 z "},"Â":{"ha":771,"x_min":38,"x_max":832,"o":"m 432 1107 l 656 1293 l 697 1293 l 832 1107 l 754 1107 l 669 1226 l 524 1107 l 432 1107 m 38 0 l 531 965 l 706 965 l 738 0 l 653 0 l 642 265 l 261 265 l 124 0 l 38 0 m 579 889 l 299 340 l 642 340 l 624 889 l 579 889 z "},"Ã":{"ha":771,"x_min":38,"x_max":874,"o":"m 740 1124 q 638 1165 708 1124 q 550 1206 567 1206 q 450 1153 524 1206 l 425 1135 l 422 1196 q 558 1278 515 1278 q 669 1238 600 1278 q 753 1197 739 1197 q 847 1247 781 1197 l 869 1264 l 874 1206 q 740 1124 786 1124 m 38 0 l 531 965 l 706 965 l 738 0 l 653 0 l 642 265 l 261 265 l 124 0 l 38 0 m 579 889 l 299 340 l 642 340 l 624 889 l 579 889 z "},"Ä":{"ha":771,"x_min":38,"x_max":836,"o":"m 485 1139 l 510 1254 l 579 1254 l 551 1139 l 485 1139 m 740 1139 l 768 1254 l 836 1254 l 808 1139 l 740 1139 m 38 0 l 531 965 l 706 965 l 738 0 l 653 0 l 642 265 l 261 265 l 124 0 l 38 0 m 579 889 l 299 340 l 642 340 l 624 889 l 579 889 z "},"Å":{"ha":771,"x_min":38,"x_max":776,"o":"m 514 932 q 492 983 492 956 q 499 1035 492 1011 q 560 1134 517 1100 q 666 1168 604 1168 q 757 1135 728 1168 q 775 1086 775 1114 q 706 935 775 986 l 738 0 l 653 0 l 642 265 l 261 265 l 124 0 l 38 0 l 514 932 m 579 889 l 299 340 l 642 340 l 624 889 l 579 889 m 553 1011 q 590 965 553 975 l 643 965 q 713 1035 697 978 q 714 1060 714 1044 q 700 1092 714 1075 q 651 1108 686 1108 q 556 1035 572 1108 q 553 1011 553 1022 z "},"Æ":{"ha":1092,"x_min":38,"x_max":1257,"o":"m 496 0 l 557 265 l 257 265 l 119 0 l 38 0 l 531 968 l 1257 968 l 1240 889 l 788 892 l 700 531 l 1075 531 l 1058 453 l 683 453 l 594 79 l 1046 79 l 1029 0 l 496 0 m 572 889 l 294 343 l 575 343 l 707 889 l 572 889 z "},"Ç":{"ha":703,"x_min":160,"x_max":874,"o":"m 413 -67 q 528 -142 528 -67 q 524 -172 528 -156 q 379 -287 497 -287 l 271 -279 l 286 -218 q 379 -224 340 -224 q 451 -169 438 -224 q 453 -154 453 -161 q 404 -119 453 -119 l 343 -119 l 369 -10 q 160 263 160 17 q 233 642 160 460 q 327 812 272 738 q 465 933 382 886 q 644 979 547 979 q 840 956 740 979 l 874 949 l 854 879 q 644 901 742 901 q 469 841 546 901 q 347 685 393 781 q 249 265 249 483 q 294 113 249 163 q 436 64 339 64 q 629 81 540 64 l 661 88 l 657 17 q 424 -14 533 -14 l 419 -14 l 406 -67 l 413 -67 z "},"È":{"ha":704,"x_min":113,"x_max":867,"o":"m 524 1285 l 767 1153 l 731 1093 l 483 1215 l 524 1285 m 113 0 l 335 965 l 867 965 l 849 889 l 403 889 l 319 531 l 689 531 l 671 454 l 303 454 l 215 76 l 661 76 l 643 0 l 113 0 z "},"É":{"ha":704,"x_min":113,"x_max":867,"o":"m 532 1097 l 521 1160 l 825 1292 l 838 1219 l 532 1097 m 113 0 l 335 965 l 867 965 l 849 889 l 403 889 l 319 531 l 689 531 l 671 454 l 303 454 l 215 76 l 661 76 l 643 0 l 113 0 z "},"Ê":{"ha":704,"x_min":113,"x_max":904,"o":"m 504 1103 l 728 1289 l 769 1289 l 904 1103 l 826 1103 l 742 1222 l 596 1103 l 504 1103 m 113 0 l 335 965 l 867 965 l 849 889 l 403 889 l 319 531 l 689 531 l 671 454 l 303 454 l 215 76 l 661 76 l 643 0 l 113 0 z "},"Ë":{"ha":704,"x_min":113,"x_max":867,"o":"m 476 1139 l 501 1254 l 571 1254 l 543 1139 l 476 1139 m 732 1139 l 760 1254 l 828 1254 l 800 1139 l 732 1139 m 113 0 l 335 965 l 867 965 l 849 889 l 403 889 l 319 531 l 689 531 l 671 454 l 303 454 l 215 76 l 661 76 l 643 0 l 113 0 z "},"Ì":{"ha":310,"x_min":113,"x_max":493,"o":"m 250 1285 l 493 1153 l 457 1093 l 210 1215 l 250 1285 m 113 0 l 335 965 l 421 965 l 197 0 l 113 0 z "},"Í":{"ha":310,"x_min":113,"x_max":640,"o":"m 335 1097 l 324 1160 l 628 1292 l 640 1219 l 335 1097 m 113 0 l 335 965 l 421 965 l 197 0 l 113 0 z "},"Î":{"ha":310,"x_min":113,"x_max":603,"o":"m 203 1103 l 426 1289 l 468 1289 l 603 1103 l 525 1103 l 440 1222 l 294 1103 l 203 1103 m 113 0 l 335 965 l 421 965 l 197 0 l 113 0 z "},"Ï":{"ha":310,"x_min":113,"x_max":597,"o":"m 246 1143 l 271 1258 l 340 1258 l 313 1143 l 246 1143 m 501 1143 l 529 1258 l 597 1258 l 569 1143 l 501 1143 m 113 0 l 335 965 l 421 965 l 197 0 l 113 0 z "},"Ð":{"ha":849,"x_min":117,"x_max":906,"o":"m 447 0 l 117 0 l 218 442 l 121 442 l 139 528 l 238 528 l 339 965 l 651 965 q 843 897 781 965 q 906 679 906 828 q 836 315 906 488 q 617 43 757 121 q 447 0 539 0 m 728 290 q 750 336 728 290 q 794 484 771 382 q 817 688 817 586 q 774 839 817 789 q 635 889 732 889 l 407 889 l 324 528 l 532 528 l 511 442 l 304 442 l 221 76 l 461 76 q 616 137 546 76 q 728 290 686 197 z "},"Ñ":{"ha":868,"x_min":113,"x_max":979,"o":"m 793 1121 q 690 1162 761 1121 q 603 1203 619 1203 q 503 1150 576 1203 l 478 1132 l 475 1193 q 610 1275 568 1275 q 722 1235 653 1275 q 806 1194 792 1194 q 900 1244 833 1194 l 922 1261 l 926 1203 q 793 1121 839 1121 m 113 0 l 335 965 l 496 965 l 664 85 l 693 85 l 896 965 l 979 965 l 757 0 l 601 0 l 429 883 l 399 883 l 194 0 l 113 0 z "},"Ò":{"ha":876,"x_min":163,"x_max":935,"o":"m 579 1285 l 822 1153 l 786 1093 l 539 1215 l 579 1285 m 250 276 q 299 111 250 160 q 454 63 347 63 q 635 121 561 63 q 791 363 736 201 q 846 688 846 524 q 794 851 846 799 q 643 903 743 903 q 472 847 543 903 q 309 599 368 767 q 250 276 250 432 m 935 692 q 875 335 935 504 q 706 76 815 167 q 449 -14 597 -14 q 232 53 301 -14 q 163 285 163 119 q 220 615 163 450 q 387 880 278 781 q 638 979 496 979 q 935 692 935 979 z "},"Ó":{"ha":876,"x_min":163,"x_max":935,"o":"m 250 276 q 299 111 250 160 q 454 63 347 63 q 635 121 561 63 q 791 363 736 201 q 846 688 846 524 q 794 851 846 799 q 643 903 743 903 q 472 847 543 903 q 309 599 368 767 q 250 276 250 432 m 935 692 q 875 335 935 504 q 706 76 815 167 q 449 -14 597 -14 q 232 53 301 -14 q 163 285 163 119 q 220 615 163 450 q 387 880 278 781 q 638 979 496 979 q 935 692 935 979 m 601 1097 l 590 1160 l 894 1292 l 907 1219 l 601 1097 z "},"Ô":{"ha":876,"x_min":163,"x_max":935,"o":"m 250 276 q 299 111 250 160 q 454 63 347 63 q 635 121 561 63 q 791 363 736 201 q 846 688 846 524 q 794 851 846 799 q 643 903 743 903 q 472 847 543 903 q 309 599 368 767 q 250 276 250 432 m 935 692 q 875 335 935 504 q 706 76 815 167 q 449 -14 597 -14 q 232 53 301 -14 q 163 285 163 119 q 220 615 163 450 q 387 880 278 781 q 638 979 496 979 q 935 692 935 979 m 494 1107 l 718 1293 l 760 1293 l 894 1107 l 817 1107 l 732 1226 l 586 1107 l 494 1107 z "},"Õ":{"ha":876,"x_min":163,"x_max":946,"o":"m 813 1121 q 710 1162 781 1121 q 622 1203 639 1203 q 522 1150 596 1203 l 497 1132 l 494 1193 q 630 1275 588 1275 q 742 1235 672 1275 q 825 1194 811 1194 q 919 1244 853 1194 l 942 1261 l 946 1203 q 813 1121 858 1121 m 250 276 q 299 111 250 160 q 454 63 347 63 q 635 121 561 63 q 791 363 736 201 q 846 688 846 524 q 794 851 846 799 q 643 903 743 903 q 472 847 543 903 q 309 599 368 767 q 250 276 250 432 m 935 692 q 875 335 935 504 q 706 76 815 167 q 449 -14 597 -14 q 232 53 301 -14 q 163 285 163 119 q 220 615 163 450 q 387 880 278 781 q 638 979 496 979 q 935 692 935 979 z "},"Ö":{"ha":876,"x_min":163,"x_max":935,"o":"m 532 1139 l 558 1253 l 636 1253 l 610 1139 l 532 1139 m 790 1139 l 815 1253 l 892 1253 l 865 1139 l 790 1139 m 250 276 q 299 111 250 160 q 454 63 347 63 q 635 121 561 63 q 791 363 736 201 q 846 688 846 524 q 794 851 846 799 q 643 903 743 903 q 472 847 543 903 q 309 599 368 767 q 250 276 250 432 m 935 692 q 875 335 935 504 q 706 76 815 167 q 449 -14 597 -14 q 232 53 301 -14 q 163 285 163 119 q 220 615 163 450 q 387 880 278 781 q 638 979 496 979 q 935 692 935 979 z "},"×":{"ha":778,"x_min":183,"x_max":753,"o":"m 238 633 l 468 400 l 699 633 l 753 579 l 521 349 l 753 118 l 699 63 l 468 296 l 238 64 l 183 118 l 415 349 l 183 578 l 238 633 z "},"Ø":{"ha":876,"x_min":100,"x_max":994,"o":"m 225 58 q 163 288 163 125 q 220 615 163 450 q 387 880 278 781 q 638 979 496 979 q 824 936 754 979 l 938 1103 l 994 1078 l 871 897 q 935 692 935 828 q 875 335 935 504 q 706 76 815 167 q 468 -14 597 -14 q 274 21 339 -14 l 151 -157 l 100 -126 l 225 58 m 776 867 q 635 903 726 903 q 472 847 543 903 q 309 599 368 767 q 250 276 250 432 q 278 136 250 183 l 776 867 m 322 92 q 465 63 369 63 q 635 121 561 63 q 791 363 736 201 q 846 688 846 524 q 818 819 846 768 l 322 92 z "},"Ù":{"ha":824,"x_min":160,"x_max":942,"o":"m 546 1285 l 789 1153 l 753 1093 l 506 1215 l 546 1285 m 244 193 q 438 64 244 64 q 613 117 554 64 q 699 286 672 171 l 856 965 l 942 965 l 785 285 q 667 59 749 132 q 444 -14 585 -14 q 160 183 160 -14 q 175 303 160 246 l 328 965 l 413 965 l 258 296 q 244 193 244 240 z "},"Ú":{"ha":824,"x_min":160,"x_max":942,"o":"m 244 193 q 438 64 244 64 q 613 117 554 64 q 699 286 672 171 l 856 965 l 942 965 l 785 285 q 667 59 749 132 q 444 -14 585 -14 q 160 183 160 -14 q 175 303 160 246 l 328 965 l 413 965 l 258 296 q 244 193 244 240 m 543 1097 l 532 1160 l 836 1292 l 849 1219 l 543 1097 z "},"Û":{"ha":824,"x_min":160,"x_max":942,"o":"m 244 193 q 438 64 244 64 q 613 117 554 64 q 699 286 672 171 l 856 965 l 942 965 l 785 285 q 667 59 749 132 q 444 -14 585 -14 q 160 183 160 -14 q 175 303 160 246 l 328 965 l 413 965 l 258 296 q 244 193 244 240 m 457 1107 l 681 1293 l 722 1293 l 857 1107 l 779 1107 l 694 1226 l 549 1107 l 457 1107 z "},"Ü":{"ha":824,"x_min":160,"x_max":942,"o":"m 492 1139 l 518 1253 l 596 1253 l 569 1139 l 492 1139 m 750 1139 l 775 1253 l 853 1253 l 825 1139 l 750 1139 m 244 193 q 438 64 244 64 q 613 117 554 64 q 699 286 672 171 l 856 965 l 942 965 l 785 285 q 667 59 749 132 q 444 -14 585 -14 q 160 183 160 -14 q 175 303 160 246 l 328 965 l 413 965 l 258 296 q 244 193 244 240 z "},"Ý":{"ha":681,"x_min":240,"x_max":882,"o":"m 478 1097 l 467 1160 l 771 1292 l 783 1219 l 478 1097 m 882 965 l 472 414 l 375 0 l 293 0 l 390 422 l 240 965 l 326 965 l 450 497 l 790 965 l 882 965 z "},"Þ":{"ha":765,"x_min":110,"x_max":840,"o":"m 494 254 q 746 503 681 254 q 758 589 758 551 q 600 728 758 728 l 365 729 l 253 254 l 494 254 m 476 174 l 233 174 l 193 0 l 110 0 l 338 968 l 421 968 l 383 808 l 619 808 q 810 724 761 808 q 840 613 840 671 q 829 503 840 554 q 706 263 796 353 q 476 174 617 174 z "},"ß":{"ha":739,"x_min":94,"x_max":782,"o":"m 567 1017 q 782 858 782 1017 q 647 644 782 710 q 558 593 582 613 q 535 547 535 574 q 551 503 535 521 q 633 444 567 485 q 724 372 699 403 q 749 274 749 340 q 667 64 749 142 q 440 -14 586 -14 q 301 6 376 -14 l 276 11 l 292 78 q 439 60 382 60 q 604 116 544 60 q 664 267 664 172 q 643 335 664 310 q 558 399 622 360 q 472 466 494 438 q 450 541 450 494 q 479 620 450 588 q 578 688 508 653 q 672 758 647 724 q 697 849 697 793 q 561 944 697 944 q 419 895 467 944 q 344 728 371 846 l 174 0 l 94 0 l 268 738 q 372 954 304 892 q 567 1017 440 1017 z "},"à":{"ha":685,"x_min":126,"x_max":744,"o":"m 300 -14 q 126 182 126 -14 q 214 528 126 364 q 324 658 256 607 q 475 708 393 708 q 696 683 550 708 l 744 675 l 639 224 q 606 38 619 146 l 600 1 l 519 -1 q 546 157 540 128 q 531 138 540 150 q 495 97 522 126 q 440 46 468 68 q 374 5 413 24 q 300 -14 335 -14 m 649 614 q 472 635 549 635 q 332 558 394 635 q 241 381 269 482 q 213 201 213 281 q 238 90 213 121 q 315 60 264 60 q 426 108 367 60 q 525 206 486 157 l 564 256 l 649 614 m 465 1019 l 710 889 l 671 832 l 425 954 l 465 1019 z "},"á":{"ha":685,"x_min":126,"x_max":778,"o":"m 300 -14 q 126 182 126 -14 q 214 528 126 364 q 324 658 256 607 q 475 708 393 708 q 696 683 550 708 l 744 675 l 639 224 q 606 38 619 146 l 600 1 l 519 -1 q 546 157 540 128 q 531 138 540 150 q 495 97 522 126 q 440 46 468 68 q 374 5 413 24 q 300 -14 335 -14 m 649 614 q 472 635 549 635 q 332 558 394 635 q 241 381 269 482 q 213 201 213 281 q 238 90 213 121 q 315 60 264 60 q 426 108 367 60 q 525 206 486 157 l 564 256 l 649 614 m 474 835 l 465 899 l 768 1029 l 778 956 l 474 835 z "},"â":{"ha":685,"x_min":126,"x_max":744,"o":"m 344 819 l 554 1021 l 613 1021 l 733 819 l 647 819 l 572 947 l 438 819 l 344 819 m 300 -14 q 126 182 126 -14 q 214 528 126 364 q 324 658 256 607 q 475 708 393 708 q 696 683 550 708 l 744 675 l 639 224 q 606 38 619 146 l 600 1 l 519 -1 q 546 157 540 128 q 531 138 540 150 q 495 97 522 126 q 440 46 468 68 q 374 5 413 24 q 300 -14 335 -14 m 649 614 q 472 635 549 635 q 332 558 394 635 q 241 381 269 482 q 213 201 213 281 q 238 90 213 121 q 315 60 264 60 q 426 108 367 60 q 525 206 486 157 l 564 256 l 649 614 z "},"ã":{"ha":685,"x_min":126,"x_max":793,"o":"m 300 -14 q 126 182 126 -14 q 214 528 126 364 q 324 658 256 607 q 475 708 393 708 q 696 683 550 708 l 744 675 l 639 224 q 606 38 619 146 l 600 1 l 519 -1 q 546 157 540 128 q 531 138 540 150 q 495 97 522 126 q 440 46 468 68 q 374 5 413 24 q 300 -14 335 -14 m 649 614 q 472 635 549 635 q 332 558 394 635 q 241 381 269 482 q 213 201 213 281 q 238 90 213 121 q 315 60 264 60 q 426 108 367 60 q 525 206 486 157 l 564 256 l 649 614 m 671 861 q 578 895 644 861 q 496 929 511 929 q 406 883 468 929 l 385 868 l 382 933 q 513 1003 465 1003 q 607 969 543 1003 q 683 935 671 935 q 768 978 708 935 l 788 992 l 793 928 q 671 861 718 861 z "},"ä":{"ha":685,"x_min":126,"x_max":744,"o":"m 378 868 l 404 982 l 482 982 l 454 868 l 378 868 m 636 868 l 660 982 l 738 982 l 711 868 l 636 868 m 300 -14 q 126 182 126 -14 q 214 528 126 364 q 324 658 256 607 q 475 708 393 708 q 696 683 550 708 l 744 675 l 639 224 q 606 38 619 146 l 600 1 l 519 -1 q 546 157 540 128 q 531 138 540 150 q 495 97 522 126 q 440 46 468 68 q 374 5 413 24 q 300 -14 335 -14 m 649 614 q 472 635 549 635 q 332 558 394 635 q 241 381 269 482 q 213 201 213 281 q 238 90 213 121 q 315 60 264 60 q 426 108 367 60 q 525 206 486 157 l 564 256 l 649 614 z "},"å":{"ha":685,"x_min":126,"x_max":744,"o":"m 300 -14 q 126 182 126 -14 q 214 528 126 364 q 324 658 256 607 q 475 708 393 708 q 696 683 550 708 l 744 675 l 639 224 q 606 38 619 146 l 600 1 l 519 -1 q 546 157 540 128 q 531 138 540 150 q 495 97 522 126 q 440 46 468 68 q 374 5 413 24 q 300 -14 335 -14 m 649 614 q 472 635 549 635 q 332 558 394 635 q 241 381 269 482 q 213 201 213 281 q 238 90 213 121 q 315 60 264 60 q 426 108 367 60 q 525 206 486 157 l 564 256 l 649 614 m 522 1015 q 619 1054 565 1054 q 696 1027 674 1054 q 718 958 718 1000 q 670 836 718 882 q 562 790 622 790 q 479 826 501 790 q 464 876 464 850 q 522 1015 464 963 m 532 867 q 538 857 532 867 q 575 847 544 847 q 635 873 606 847 q 665 944 665 899 q 653 976 665 957 q 610 994 640 994 q 550 970 581 994 q 519 899 519 946 q 532 867 519 886 z "},"æ":{"ha":1051,"x_min":89,"x_max":1099,"o":"m 608 197 q 725 65 608 65 q 942 75 804 65 l 982 78 l 967 6 q 718 -14 822 -14 q 544 64 588 -14 q 383 10 476 35 q 229 -14 290 -14 q 111 47 143 -14 q 89 126 89 86 q 176 339 89 275 q 343 399 239 383 q 560 422 447 415 q 582 533 582 489 q 489 625 582 625 q 281 614 421 625 l 240 610 l 253 689 q 490 707 408 707 q 661 594 647 707 q 901 707 747 707 q 1099 519 1094 707 q 1079 376 1099 446 l 1061 310 l 625 313 q 608 197 608 242 m 176 153 q 254 64 176 64 q 525 125 351 64 q 519 199 519 153 q 546 350 519 244 q 335 326 393 335 q 183 199 210 307 q 176 153 176 175 m 1017 500 q 883 631 1017 631 q 731 572 790 631 q 640 383 671 513 l 999 381 q 1017 500 1017 454 z "},"ç":{"ha":563,"x_min":132,"x_max":663,"o":"m 333 -67 q 449 -142 449 -67 q 444 -172 449 -156 q 300 -287 418 -287 l 192 -279 l 207 -218 q 300 -224 261 -224 q 372 -169 358 -224 q 374 -154 374 -161 q 325 -119 374 -119 l 264 -119 l 290 -10 q 132 190 132 15 q 219 549 132 400 q 335 665 264 622 q 497 708 407 708 q 639 692 565 708 l 663 686 l 642 619 q 494 635 556 635 q 339 569 403 635 q 217 204 217 447 q 253 96 217 132 q 369 60 289 60 q 500 76 418 60 l 526 82 l 522 15 q 344 -14 428 -14 l 340 -14 l 326 -67 l 333 -67 z "},"è":{"ha":636,"x_min":129,"x_max":699,"o":"m 214 196 q 214 165 214 196 q 252 97 214 133 q 346 61 290 61 q 550 86 453 61 l 583 96 l 578 28 q 347 -14 457 -14 q 129 192 129 -14 q 219 538 129 381 q 336 660 263 614 q 503 707 410 707 q 699 549 699 707 q 604 377 699 426 q 308 328 510 328 l 231 328 q 214 196 214 258 m 325 396 q 547 428 478 396 q 615 549 615 461 q 499 636 615 636 q 243 396 317 636 l 325 396 m 357 1019 l 601 889 l 563 832 l 317 954 l 357 1019 z "},"é":{"ha":636,"x_min":129,"x_max":728,"o":"m 214 196 q 214 165 214 196 q 252 97 214 133 q 346 61 290 61 q 550 86 453 61 l 583 96 l 578 28 q 347 -14 457 -14 q 129 192 129 -14 q 219 538 129 381 q 336 660 263 614 q 503 707 410 707 q 699 549 699 707 q 604 377 699 426 q 308 328 510 328 l 231 328 q 214 196 214 258 m 325 396 q 547 428 478 396 q 615 549 615 461 q 499 636 615 636 q 243 396 317 636 l 325 396 m 424 835 l 415 899 l 718 1029 l 728 956 l 424 835 z "},"ê":{"ha":636,"x_min":129,"x_max":706,"o":"m 317 819 l 528 1021 l 585 1021 l 706 819 l 621 819 l 546 947 l 411 819 l 317 819 m 214 196 q 214 165 214 196 q 252 97 214 133 q 346 61 290 61 q 550 86 453 61 l 583 96 l 578 28 q 347 -14 457 -14 q 129 192 129 -14 q 219 538 129 381 q 336 660 263 614 q 503 707 410 707 q 699 549 699 707 q 604 377 699 426 q 308 328 510 328 l 231 328 q 214 196 214 258 m 325 396 q 547 428 478 396 q 615 549 615 461 q 499 636 615 636 q 243 396 317 636 l 325 396 z "},"ë":{"ha":636,"x_min":129,"x_max":726,"o":"m 365 868 l 392 982 l 469 982 l 443 868 l 365 868 m 624 868 l 649 982 l 726 982 l 699 868 l 624 868 m 214 196 q 214 165 214 196 q 252 97 214 133 q 346 61 290 61 q 550 86 453 61 l 583 96 l 578 28 q 347 -14 457 -14 q 129 192 129 -14 q 219 538 129 381 q 336 660 263 614 q 503 707 410 707 q 699 549 699 707 q 604 377 699 426 q 308 328 510 328 l 231 328 q 214 196 214 258 m 325 396 q 547 428 478 396 q 615 549 615 461 q 499 636 615 636 q 243 396 317 636 l 325 396 z "},"ì":{"ha":274,"x_min":94,"x_max":393,"o":"m 94 0 l 256 694 l 339 694 l 178 0 l 94 0 m 149 1019 l 393 889 l 354 832 l 108 954 l 149 1019 z "},"í":{"ha":274,"x_min":94,"x_max":576,"o":"m 94 0 l 256 694 l 339 694 l 178 0 l 94 0 m 272 835 l 264 899 l 567 1029 l 576 956 l 272 835 z "},"î":{"ha":274,"x_min":94,"x_max":510,"o":"m 122 819 l 332 1021 l 390 1021 l 510 819 l 425 819 l 350 947 l 215 819 l 122 819 m 94 0 l 256 694 l 339 694 l 178 0 l 94 0 z "},"ï":{"ha":274,"x_min":94,"x_max":508,"o":"m 149 868 l 175 982 l 253 982 l 225 868 l 149 868 m 407 868 l 431 982 l 508 982 l 482 868 l 407 868 m 94 0 l 256 694 l 339 694 l 178 0 l 94 0 z "},"ð":{"ha":714,"x_min":111,"x_max":775,"o":"m 775 618 q 760 497 775 561 q 595 108 696 229 q 343 -12 494 -12 q 165 49 218 -12 q 113 189 113 110 q 114 217 113 203 q 226 491 124 386 q 469 596 328 596 q 567 583 514 596 q 653 556 621 569 l 685 542 q 690 603 690 574 q 554 843 690 751 l 389 740 l 356 794 l 492 879 q 354 933 442 906 l 389 1008 q 579 935 499 982 l 729 1029 l 761 974 l 638 896 q 775 618 775 789 m 457 514 q 280 430 353 514 q 204 222 207 346 q 203 206 203 214 q 240 109 203 147 q 363 71 276 71 q 667 460 568 71 q 572 495 644 476 q 457 514 499 514 z "},"ñ":{"ha":686,"x_min":94,"x_max":765,"o":"m 518 633 q 392 572 463 633 q 336 520 364 550 q 299 478 308 490 q 285 460 290 467 l 178 0 l 94 0 l 256 694 l 336 694 l 307 560 l 339 597 q 429 671 369 633 q 556 708 489 708 q 665 663 624 708 q 707 544 707 617 q 679 356 707 472 l 596 0 l 514 0 l 596 350 q 622 524 622 463 q 518 633 622 633 m 643 861 q 550 895 617 861 q 468 929 483 929 q 378 883 440 929 l 357 868 l 354 933 q 485 1003 438 1003 q 579 969 515 1003 q 656 935 643 935 q 740 978 681 935 l 760 992 l 765 928 q 643 861 690 861 z "},"ò":{"ha":686,"x_min":131,"x_max":713,"o":"m 479 707 q 713 478 713 707 q 615 129 713 272 q 358 -14 517 -14 q 131 206 131 -14 q 230 560 131 413 q 479 707 329 707 m 358 60 q 553 183 478 60 q 628 479 628 306 q 590 592 628 550 q 479 635 553 635 q 289 507 364 635 q 214 206 214 379 q 358 60 214 60 m 394 1019 l 639 889 l 600 832 l 354 954 l 394 1019 z "},"ó":{"ha":686,"x_min":131,"x_max":729,"o":"m 479 707 q 713 478 713 707 q 615 129 713 272 q 358 -14 517 -14 q 131 206 131 -14 q 230 560 131 413 q 479 707 329 707 m 358 60 q 553 183 478 60 q 628 479 628 306 q 590 592 628 550 q 479 635 553 635 q 289 507 364 635 q 214 206 214 379 q 358 60 214 60 m 425 835 l 417 899 l 719 1029 l 729 956 l 425 835 z "},"ô":{"ha":686,"x_min":131,"x_max":728,"o":"m 339 819 l 550 1021 l 607 1021 l 728 819 l 642 819 l 567 947 l 432 819 l 339 819 m 479 707 q 713 478 713 707 q 615 129 713 272 q 358 -14 517 -14 q 131 206 131 -14 q 230 560 131 413 q 479 707 329 707 m 358 60 q 553 183 478 60 q 628 479 628 306 q 590 592 628 550 q 479 635 553 635 q 289 507 364 635 q 214 206 214 379 q 358 60 214 60 z "},"õ":{"ha":686,"x_min":131,"x_max":747,"o":"m 479 707 q 713 478 713 707 q 615 129 713 272 q 358 -14 517 -14 q 131 206 131 -14 q 230 560 131 413 q 479 707 329 707 m 358 60 q 553 183 478 60 q 628 479 628 306 q 590 592 628 550 q 479 635 553 635 q 289 507 364 635 q 214 206 214 379 q 358 60 214 60 m 625 861 q 532 895 597 861 q 450 929 467 929 q 360 883 422 929 l 339 868 l 336 933 q 467 1003 419 1003 q 561 969 497 1003 q 639 935 625 935 q 722 978 663 935 l 742 992 l 747 928 q 625 861 672 861 z "},"ö":{"ha":686,"x_min":131,"x_max":718,"o":"m 479 707 q 713 478 713 707 q 615 129 713 272 q 358 -14 517 -14 q 131 206 131 -14 q 230 560 131 413 q 479 707 329 707 m 358 60 q 553 183 478 60 q 628 479 628 306 q 590 592 628 550 q 479 635 553 635 q 289 507 364 635 q 214 206 214 379 q 358 60 214 60 m 376 868 l 403 982 l 471 982 l 444 868 l 376 868 m 625 868 l 650 982 l 718 982 l 692 868 l 625 868 z "},"÷":{"ha":778,"x_min":215,"x_max":724,"o":"m 215 365 l 215 447 l 724 447 l 724 365 l 215 365 m 369 465 l 369 590 l 569 590 l 569 465 l 369 465 m 426 46 l 426 175 l 511 175 l 511 46 l 426 46 z "},"ø":{"ha":685,"x_min":85,"x_max":746,"o":"m 481 710 q 600 688 547 710 l 693 839 l 746 817 l 646 660 q 714 481 714 600 q 616 132 714 275 q 360 -11 518 -11 q 239 10 289 -11 l 138 -156 l 85 -133 l 193 38 q 132 208 132 92 q 231 563 132 415 q 481 710 331 710 m 360 63 q 554 185 479 63 q 629 482 629 308 q 600 585 629 546 l 440 333 l 282 78 q 360 63 311 63 m 481 638 q 290 510 365 638 q 215 208 215 382 q 240 113 215 147 l 396 358 l 558 621 q 481 638 526 638 z "},"ù":{"ha":686,"x_min":139,"x_max":751,"o":"m 397 1019 l 642 889 l 603 832 l 357 954 l 397 1019 m 301 -14 q 181 32 224 -14 q 139 150 139 78 q 167 339 139 222 l 250 694 l 332 694 l 250 344 q 224 175 224 232 q 328 61 224 61 q 432 104 374 61 q 525 190 490 147 l 561 233 l 668 694 l 751 694 l 590 0 l 510 0 l 539 135 q 375 3 469 42 q 301 -14 336 -14 z "},"ú":{"ha":686,"x_min":139,"x_max":751,"o":"m 301 -14 q 181 32 224 -14 q 139 150 139 78 q 167 339 139 222 l 250 694 l 332 694 l 250 344 q 224 175 224 232 q 328 61 224 61 q 432 104 374 61 q 525 190 490 147 l 561 233 l 668 694 l 751 694 l 590 0 l 510 0 l 539 135 q 375 3 469 42 q 301 -14 336 -14 m 443 835 l 435 899 l 738 1029 l 747 956 l 443 835 z "},"û":{"ha":686,"x_min":139,"x_max":751,"o":"m 313 819 l 524 1021 l 581 1021 l 701 819 l 617 819 l 542 947 l 407 819 l 313 819 m 301 -14 q 181 32 224 -14 q 139 150 139 78 q 167 339 139 222 l 250 694 l 332 694 l 250 344 q 224 175 224 232 q 328 61 224 61 q 432 104 374 61 q 525 190 490 147 l 561 233 l 668 694 l 751 694 l 590 0 l 510 0 l 539 135 q 375 3 469 42 q 301 -14 336 -14 z "},"ü":{"ha":686,"x_min":139,"x_max":751,"o":"m 356 868 l 382 982 l 460 982 l 433 868 l 356 868 m 614 868 l 639 982 l 717 982 l 689 868 l 614 868 m 301 -14 q 181 32 224 -14 q 139 150 139 78 q 167 339 139 222 l 250 694 l 332 694 l 250 344 q 224 175 224 232 q 328 61 224 61 q 432 104 374 61 q 525 190 490 147 l 561 233 l 668 694 l 751 694 l 590 0 l 510 0 l 539 135 q 375 3 469 42 q 301 -14 336 -14 z "},"ý":{"ha":628,"x_min":147,"x_max":751,"o":"m 197 694 l 279 694 l 299 72 l 346 72 l 664 694 l 751 694 l 232 -311 l 147 -311 l 311 0 l 221 0 l 197 694 m 407 835 l 399 899 l 701 1029 l 711 956 l 407 835 z "},"þ":{"ha":667,"x_min":21,"x_max":704,"o":"m 531 707 q 640 673 599 707 q 692 591 682 639 q 703 515 703 543 q 683 360 703 432 q 546 76 631 165 q 317 -14 461 -14 q 210 -8 247 -14 q 172 0 172 -1 l 99 -310 l 21 -310 l 331 1000 l 410 1000 l 318 619 q 531 707 439 707 m 603 360 q 618 459 618 417 q 613 537 618 501 q 580 600 607 572 q 508 628 553 628 q 411 603 464 628 q 328 556 358 578 l 297 533 l 190 79 l 331 65 q 499 135 438 65 q 603 360 560 206 z "},"ÿ":{"ha":628,"x_min":147,"x_max":751,"o":"m 326 868 l 353 982 l 431 982 l 404 868 l 326 868 m 585 868 l 610 982 l 688 982 l 660 868 l 585 868 m 197 694 l 279 694 l 299 72 l 346 72 l 664 694 l 751 694 l 232 -311 l 147 -311 l 311 0 l 221 0 l 197 694 z "},"Ā":{"ha":771,"x_min":38,"x_max":858,"o":"m 447 1160 l 461 1224 l 858 1224 l 842 1160 l 447 1160 m 38 0 l 531 965 l 706 965 l 738 0 l 653 0 l 642 265 l 261 265 l 124 0 l 38 0 m 579 889 l 299 340 l 642 340 l 624 889 l 579 889 z "},"ā":{"ha":685,"x_min":126,"x_max":785,"o":"m 300 -14 q 126 182 126 -14 q 214 528 126 364 q 324 658 256 607 q 475 708 393 708 q 696 683 550 708 l 744 675 l 639 224 q 606 38 619 146 l 600 1 l 519 -1 q 546 157 540 128 q 531 138 540 150 q 495 97 522 126 q 440 46 468 68 q 374 5 413 24 q 300 -14 335 -14 m 649 614 q 472 635 549 635 q 332 558 394 635 q 241 381 269 482 q 213 201 213 281 q 238 90 213 121 q 315 60 264 60 q 426 108 367 60 q 525 206 486 157 l 564 256 l 649 614 m 399 892 l 414 957 l 785 957 l 768 892 l 399 892 z "},"Ă":{"ha":771,"x_min":38,"x_max":865,"o":"m 564 1279 q 561 1239 561 1263 q 581 1195 561 1215 q 650 1175 600 1175 q 740 1204 700 1175 q 792 1279 779 1233 l 865 1279 q 783 1153 842 1197 q 638 1108 724 1108 q 514 1151 553 1108 q 486 1235 486 1182 q 490 1279 486 1256 l 564 1279 m 38 0 l 531 965 l 706 965 l 738 0 l 653 0 l 642 265 l 261 265 l 124 0 l 38 0 m 579 889 l 299 340 l 642 340 l 624 889 l 579 889 z "},"ă":{"ha":685,"x_min":126,"x_max":808,"o":"m 300 -14 q 126 182 126 -14 q 214 528 126 364 q 324 658 256 607 q 475 708 393 708 q 696 683 550 708 l 744 675 l 639 224 q 606 38 619 146 l 600 1 l 519 -1 q 546 157 540 128 q 531 138 540 150 q 495 97 522 126 q 440 46 468 68 q 374 5 413 24 q 300 -14 335 -14 m 649 614 q 472 635 549 635 q 332 558 394 635 q 241 381 269 482 q 213 201 213 281 q 238 90 213 121 q 315 60 264 60 q 426 108 367 60 q 525 206 486 157 l 564 256 l 649 614 m 497 1010 q 493 969 493 992 q 508 925 493 947 q 589 893 531 893 q 736 1010 704 893 l 808 1010 q 568 825 756 825 q 444 876 482 825 q 421 947 421 911 q 426 1010 421 983 l 497 1010 z "},"Ą":{"ha":771,"x_min":38,"x_max":739,"o":"m 738 0 l 733 0 q 647 -87 690 -33 q 603 -175 603 -140 q 642 -206 603 -206 l 713 -197 l 704 -268 q 606 -281 646 -281 q 511 -197 511 -281 q 556 -96 511 -151 q 653 4 600 -40 l 642 265 l 261 265 l 124 0 l 38 0 l 531 965 l 706 965 l 738 4 l 739 4 l 738 3 l 738 0 m 579 889 l 299 340 l 642 340 l 624 889 l 579 889 z "},"ą":{"ha":685,"x_min":126,"x_max":744,"o":"m 464 -281 q 369 -197 369 -281 q 419 -87 369 -149 q 521 13 469 -26 q 533 81 522 19 q 546 157 543 142 q 531 138 540 150 q 495 97 522 126 q 440 46 468 68 q 374 5 413 24 q 300 -14 335 -14 q 126 182 126 -14 q 214 528 126 364 q 324 658 256 607 q 475 708 393 708 q 696 683 550 708 l 744 675 l 639 224 q 606 38 619 146 l 600 1 l 593 1 q 506 -85 551 -31 q 461 -175 461 -140 q 500 -206 461 -206 l 571 -197 l 563 -268 q 464 -281 504 -281 m 649 614 q 472 635 549 635 q 332 558 394 635 q 241 381 269 482 q 213 201 213 281 q 238 90 213 121 q 315 60 264 60 q 426 108 367 60 q 525 206 486 157 l 564 256 l 649 614 z "},"Ć":{"ha":703,"x_min":160,"x_max":885,"o":"m 424 -14 q 160 263 160 -14 q 233 642 160 460 q 327 812 272 738 q 465 933 382 886 q 644 979 547 979 q 840 956 740 979 l 874 949 l 854 879 q 644 901 742 901 q 469 841 546 901 q 347 685 393 781 q 249 265 249 483 q 294 113 249 163 q 436 64 339 64 q 629 81 540 64 l 661 88 l 657 17 q 424 -14 533 -14 m 579 1097 l 568 1160 l 872 1292 l 885 1219 l 579 1097 z "},"ć":{"ha":561,"x_min":132,"x_max":721,"o":"m 639 692 l 663 686 l 642 619 q 494 635 556 635 q 339 569 403 635 q 217 204 217 447 q 253 96 217 132 q 369 60 289 60 q 500 76 418 60 l 526 82 l 522 15 q 344 -14 428 -14 q 132 190 132 -14 q 219 549 132 400 q 335 665 264 622 q 486 708 407 708 q 639 692 565 708 m 417 835 l 408 899 l 711 1029 l 721 956 l 417 835 z "},"Ĉ":{"ha":703,"x_min":160,"x_max":881,"o":"m 424 -14 q 160 263 160 -14 q 233 642 160 460 q 327 812 272 738 q 465 933 382 886 q 644 979 547 979 q 840 956 740 979 l 874 949 l 854 879 q 644 901 742 901 q 469 841 546 901 q 347 685 393 781 q 249 265 249 483 q 294 113 249 163 q 436 64 339 64 q 629 81 540 64 l 661 88 l 657 17 q 424 -14 533 -14 m 481 1107 l 704 1293 l 746 1293 l 881 1107 l 803 1107 l 718 1226 l 572 1107 l 481 1107 z "},"ĉ":{"ha":561,"x_min":132,"x_max":699,"o":"m 639 692 l 663 686 l 642 619 q 494 635 556 635 q 339 569 403 635 q 217 204 217 447 q 253 96 217 132 q 369 60 289 60 q 500 76 418 60 l 526 82 l 522 15 q 344 -14 428 -14 q 132 190 132 -14 q 219 549 132 400 q 335 665 264 622 q 486 708 407 708 q 639 692 565 708 m 325 819 l 535 1021 l 578 1021 l 699 819 l 621 819 l 546 947 l 411 819 l 325 819 z "},"Ċ":{"ha":703,"x_min":160,"x_max":874,"o":"m 424 -14 q 160 263 160 -14 q 233 642 160 460 q 327 812 272 738 q 465 933 382 886 q 644 979 547 979 q 840 956 740 979 l 874 949 l 854 879 q 644 901 742 901 q 469 841 546 901 q 347 685 393 781 q 249 265 249 483 q 294 113 249 163 q 436 64 339 64 q 629 81 540 64 l 661 88 l 657 17 q 424 -14 533 -14 m 640 1108 l 664 1217 l 733 1217 l 710 1108 l 640 1108 z "},"ċ":{"ha":561,"x_min":132,"x_max":663,"o":"m 639 692 l 663 686 l 642 619 q 494 635 556 635 q 339 569 403 635 q 217 204 217 447 q 253 96 217 132 q 369 60 289 60 q 500 76 418 60 l 526 82 l 522 15 q 344 -14 428 -14 q 132 190 132 -14 q 219 549 132 400 q 335 665 264 622 q 486 708 407 708 q 639 692 565 708 m 474 847 l 500 956 l 571 956 l 546 847 l 474 847 z "},"Č":{"ha":703,"x_min":160,"x_max":921,"o":"m 424 -14 q 160 263 160 -14 q 233 642 160 460 q 327 812 272 738 q 465 933 382 886 q 644 979 547 979 q 840 956 740 979 l 874 949 l 854 879 q 644 901 742 901 q 469 841 546 901 q 347 685 393 781 q 249 265 249 483 q 294 113 249 163 q 436 64 339 64 q 629 81 540 64 l 661 88 l 657 17 q 424 -14 533 -14 m 921 1292 l 704 1106 l 654 1106 l 518 1292 l 600 1292 l 690 1168 l 833 1292 l 921 1292 z "},"č":{"ha":561,"x_min":132,"x_max":754,"o":"m 538 819 l 493 819 l 375 1021 l 451 1021 l 531 889 l 668 1021 l 754 1021 l 538 819 m 639 692 l 663 686 l 642 619 q 494 635 556 635 q 339 569 403 635 q 217 204 217 447 q 253 96 217 132 q 369 60 289 60 q 500 76 418 60 l 526 82 l 522 15 q 344 -14 428 -14 q 132 190 132 -14 q 219 549 132 400 q 335 665 264 622 q 486 708 407 708 q 639 692 565 708 z "},"Ď":{"ha":843,"x_min":113,"x_max":901,"o":"m 443 0 l 113 0 l 335 965 l 647 965 q 839 897 776 965 q 901 679 901 828 q 831 315 901 488 q 742 156 794 225 q 612 43 689 86 q 443 0 535 0 m 813 688 q 813 738 813 688 q 770 839 813 789 q 631 889 728 889 l 403 889 l 217 76 l 457 76 q 612 137 542 76 q 724 290 682 197 q 790 484 767 382 q 813 688 813 586 m 863 1292 l 646 1106 l 596 1106 l 460 1292 l 542 1292 l 632 1168 l 775 1292 l 863 1292 z "},"ď":{"ha":736,"x_min":126,"x_max":972,"o":"m 972 965 l 899 649 l 822 649 l 897 965 l 972 965 m 296 -14 q 126 179 126 -14 q 166 420 126 301 q 287 623 206 539 q 472 707 368 707 q 633 689 542 707 l 663 683 l 738 1003 l 821 1003 l 588 0 l 507 0 l 538 136 q 371 3 467 42 q 296 -14 332 -14 m 647 614 q 474 635 554 635 q 331 558 393 635 q 241 379 269 481 q 213 179 213 278 q 321 60 213 60 q 426 104 367 60 q 524 194 486 149 l 561 239 l 647 614 z "},"Đ":{"ha":849,"x_min":117,"x_max":906,"o":"m 447 0 l 117 0 l 218 442 l 121 442 l 139 528 l 238 528 l 339 965 l 651 965 q 843 897 781 965 q 906 679 906 828 q 836 315 906 488 q 617 43 757 121 q 447 0 539 0 m 728 290 q 750 336 728 290 q 794 484 771 382 q 817 688 817 586 q 774 839 817 789 q 635 889 732 889 l 407 889 l 324 528 l 531 528 l 511 442 l 304 442 l 221 76 l 461 76 q 616 137 546 76 q 728 290 686 197 z "},"đ":{"ha":685,"x_min":126,"x_max":876,"o":"m 296 -14 q 126 179 126 -14 q 166 420 126 301 q 287 623 206 539 q 472 707 368 707 q 633 689 542 707 l 663 683 l 697 832 l 489 832 l 506 911 l 715 911 l 738 1003 l 821 1003 l 799 911 l 876 911 l 858 832 l 781 832 l 588 0 l 507 0 l 538 136 q 371 3 467 42 q 296 -14 332 -14 m 647 614 q 474 635 554 635 q 331 558 393 635 q 241 379 269 481 q 213 179 213 278 q 321 60 213 60 q 426 104 367 60 q 524 194 486 149 l 561 239 l 647 614 z "},"Ē":{"ha":704,"x_min":113,"x_max":867,"o":"m 435 1150 l 449 1214 l 846 1214 l 829 1150 l 435 1150 m 113 0 l 335 965 l 867 965 l 849 889 l 403 889 l 319 531 l 689 531 l 671 454 l 303 454 l 215 76 l 661 76 l 643 0 l 113 0 z "},"ē":{"ha":636,"x_min":129,"x_max":753,"o":"m 214 196 q 214 165 214 196 q 252 97 214 133 q 346 61 290 61 q 550 86 453 61 l 583 96 l 578 28 q 347 -14 457 -14 q 129 192 129 -14 q 219 538 129 381 q 336 660 263 614 q 503 707 410 707 q 699 549 699 707 q 604 377 699 426 q 308 328 510 328 l 231 328 q 214 196 214 258 m 325 396 q 547 428 478 396 q 615 549 615 461 q 499 636 615 636 q 243 396 317 636 l 325 396 m 367 892 l 382 957 l 753 957 l 736 892 l 367 892 z "},"Ĕ":{"ha":704,"x_min":113,"x_max":867,"o":"m 546 1281 q 543 1240 543 1264 q 563 1197 543 1217 q 632 1176 582 1176 q 722 1206 682 1176 q 774 1281 761 1235 l 847 1281 q 765 1154 824 1199 q 620 1110 706 1110 q 496 1153 535 1110 q 468 1236 468 1183 q 472 1281 468 1257 l 546 1281 m 113 0 l 335 965 l 867 965 l 849 889 l 403 889 l 319 531 l 689 531 l 671 454 l 303 454 l 215 76 l 661 76 l 643 0 l 113 0 z "},"ĕ":{"ha":636,"x_min":129,"x_max":767,"o":"m 214 196 q 214 165 214 196 q 252 97 214 133 q 346 61 290 61 q 550 86 453 61 l 583 96 l 578 28 q 347 -14 457 -14 q 129 192 129 -14 q 219 538 129 381 q 336 660 263 614 q 503 707 410 707 q 699 549 699 707 q 604 377 699 426 q 308 328 510 328 l 231 328 q 214 196 214 258 m 325 396 q 547 428 478 396 q 615 549 615 461 q 499 636 615 636 q 243 396 317 636 l 325 396 m 456 1010 q 451 969 451 992 q 467 925 451 947 q 547 893 489 893 q 694 1010 663 893 l 767 1010 q 526 825 714 825 q 403 876 440 825 q 379 947 379 911 q 385 1010 379 983 l 456 1010 z "},"Ė":{"ha":704,"x_min":113,"x_max":867,"o":"m 597 1172 l 621 1281 l 690 1281 l 667 1172 l 597 1172 m 113 0 l 335 965 l 867 965 l 849 889 l 403 889 l 319 531 l 689 531 l 671 454 l 303 454 l 215 76 l 661 76 l 643 0 l 113 0 z "},"ė":{"ha":636,"x_min":129,"x_max":699,"o":"m 214 196 q 214 165 214 196 q 252 97 214 133 q 346 61 290 61 q 550 86 453 61 l 583 96 l 578 28 q 347 -14 457 -14 q 129 192 129 -14 q 219 538 129 381 q 336 660 263 614 q 503 707 410 707 q 699 549 699 707 q 604 377 699 426 q 308 328 510 328 l 231 328 q 214 196 214 258 m 325 396 q 547 428 478 396 q 615 549 615 461 q 499 636 615 636 q 243 396 317 636 l 325 396 m 481 847 l 507 956 l 578 956 l 553 847 l 481 847 z "},"Ę":{"ha":704,"x_min":113,"x_max":867,"o":"m 482 -175 q 521 -206 482 -206 l 592 -197 l 583 -268 q 485 -281 525 -281 q 390 -198 390 -281 q 526 0 390 -115 l 113 0 l 335 965 l 867 965 l 849 889 l 403 889 l 319 531 l 689 531 l 671 454 l 303 454 l 215 76 l 661 76 l 643 0 l 613 0 q 526 -87 569 -33 q 482 -175 482 -140 z "},"ę":{"ha":636,"x_min":129,"x_max":699,"o":"m 440 -253 q 346 -169 346 -253 q 447 -3 346 -101 q 333 -14 389 -14 q 183 38 236 -14 q 129 187 129 90 q 152 372 129 283 q 219 538 175 461 q 336 660 263 614 q 503 707 410 707 q 699 549 699 707 q 604 377 699 426 q 308 328 510 328 l 231 328 q 214 196 214 258 q 252 97 214 133 q 346 61 290 61 q 550 86 453 61 l 583 96 l 578 28 q 561 22 571 25 q 478 -64 518 -14 q 438 -147 438 -114 q 476 -178 438 -178 l 547 -169 l 539 -240 q 440 -253 481 -253 m 325 396 q 547 428 478 396 q 615 549 615 461 q 499 636 615 636 q 243 396 317 636 l 325 396 z "},"Ě":{"ha":704,"x_min":113,"x_max":867,"o":"m 857 1297 l 640 1111 l 590 1111 l 454 1297 l 536 1297 l 626 1174 l 769 1297 l 857 1297 m 113 0 l 335 965 l 867 965 l 849 889 l 403 889 l 319 531 l 689 531 l 671 454 l 303 454 l 215 76 l 661 76 l 643 0 l 113 0 z "},"ě":{"ha":636,"x_min":129,"x_max":771,"o":"m 214 196 q 214 165 214 196 q 252 97 214 133 q 346 61 290 61 q 550 86 453 61 l 583 96 l 578 28 q 347 -14 457 -14 q 129 192 129 -14 q 219 538 129 381 q 336 660 263 614 q 503 707 410 707 q 699 549 699 707 q 604 377 699 426 q 308 328 510 328 l 231 328 q 214 196 214 258 m 325 396 q 547 428 478 396 q 615 549 615 461 q 499 636 615 636 q 243 396 317 636 l 325 396 m 554 819 l 510 819 l 392 1021 l 468 1021 l 547 889 l 685 1021 l 771 1021 l 554 819 z "},"Ĝ":{"ha":796,"x_min":161,"x_max":926,"o":"m 485 1090 l 694 1292 l 753 1292 l 872 1090 l 788 1090 l 713 1218 l 578 1090 l 485 1090 m 444 -14 q 161 253 161 -14 q 278 742 161 524 q 433 914 336 849 q 651 979 529 979 q 889 949 768 979 l 926 939 l 904 872 q 653 903 764 903 q 465 840 543 903 q 342 678 388 778 q 250 251 250 475 q 453 63 250 63 q 614 81 531 63 l 642 88 l 719 418 l 560 418 l 576 492 l 822 492 l 713 25 q 444 -14 583 -14 z "},"ĝ":{"ha":644,"x_min":28,"x_max":781,"o":"m 263 -329 q 91 -280 154 -329 q 28 -149 28 -231 q 215 69 28 -31 q 194 122 194 90 q 213 188 194 154 q 250 242 231 222 l 268 263 q 172 419 172 306 q 248 620 172 532 q 450 708 324 708 q 560 692 514 708 l 575 686 l 781 694 l 764 621 l 629 621 q 656 519 656 581 q 578 328 656 415 q 363 240 501 240 l 321 243 q 272 149 272 182 q 298 106 272 117 q 420 84 324 96 q 565 36 517 72 q 613 -76 613 0 q 517 -254 613 -179 q 263 -329 421 -329 m 263 38 q 154 -39 200 6 q 108 -135 108 -83 q 150 -222 108 -187 q 284 -257 192 -257 q 453 -208 376 -257 q 531 -82 531 -160 q 499 -15 531 -35 q 380 15 467 6 q 263 38 293 25 m 374 311 q 524 377 471 311 q 576 508 576 443 q 546 605 576 574 q 437 636 515 636 q 306 570 358 636 q 253 431 253 504 q 374 311 253 311 m 303 819 l 513 1021 l 556 1021 l 676 819 l 599 819 l 524 947 l 389 819 l 303 819 z "},"Ğ":{"ha":796,"x_min":161,"x_max":932,"o":"m 614 1281 q 611 1242 611 1271 q 635 1190 611 1213 q 710 1167 660 1167 q 800 1198 761 1167 q 853 1281 839 1229 l 932 1281 q 842 1140 908 1194 q 692 1086 775 1086 q 570 1127 610 1086 q 529 1231 531 1168 q 533 1281 529 1256 l 614 1281 m 444 -14 q 161 253 161 -14 q 278 742 161 524 q 433 914 336 849 q 651 979 529 979 q 889 949 768 979 l 926 939 l 904 872 q 653 903 764 903 q 465 840 543 903 q 342 678 388 778 q 250 251 250 475 q 453 63 250 63 q 614 81 531 63 l 642 88 l 719 418 l 560 418 l 576 492 l 822 492 l 713 25 q 444 -14 583 -14 z "},"ğ":{"ha":644,"x_min":28,"x_max":781,"o":"m 263 -329 q 91 -280 154 -329 q 28 -149 28 -231 q 215 69 28 -31 q 194 122 194 90 q 213 188 194 154 q 250 242 231 222 l 268 263 q 172 419 172 306 q 248 620 172 532 q 450 708 324 708 q 560 692 514 708 l 575 686 l 781 694 l 764 621 l 629 621 q 656 519 656 581 q 578 328 656 415 q 363 240 501 240 l 321 243 q 272 149 272 182 q 298 106 272 117 q 420 84 324 96 q 565 36 517 72 q 613 -76 613 0 q 517 -254 613 -179 q 263 -329 421 -329 m 263 38 q 154 -39 200 6 q 108 -135 108 -83 q 150 -222 108 -187 q 284 -257 192 -257 q 453 -208 376 -257 q 531 -82 531 -160 q 499 -15 531 -35 q 380 15 467 6 q 263 38 293 25 m 374 311 q 524 377 471 311 q 576 508 576 443 q 546 605 576 574 q 437 636 515 636 q 306 570 358 636 q 253 431 253 504 q 374 311 253 311 m 454 1010 q 450 969 450 992 q 464 925 450 947 q 546 893 488 893 q 693 1010 661 893 l 765 1010 q 525 825 713 825 q 403 876 439 825 q 378 947 378 911 q 383 1010 378 983 l 454 1010 z "},"Ġ":{"ha":796,"x_min":161,"x_max":926,"o":"m 661 1129 l 686 1238 l 765 1238 l 740 1129 l 661 1129 m 444 -14 q 161 253 161 -14 q 278 742 161 524 q 433 914 336 849 q 651 979 529 979 q 889 949 768 979 l 926 939 l 904 872 q 653 903 764 903 q 465 840 543 903 q 342 678 388 778 q 250 251 250 475 q 453 63 250 63 q 614 81 531 63 l 642 88 l 719 418 l 560 418 l 576 492 l 822 492 l 713 25 q 444 -14 583 -14 z "},"ġ":{"ha":644,"x_min":28,"x_max":781,"o":"m 263 -329 q 91 -280 154 -329 q 28 -149 28 -231 q 215 69 28 -31 q 194 122 194 90 q 213 188 194 154 q 250 242 231 222 l 268 263 q 172 419 172 306 q 248 620 172 532 q 450 708 324 708 q 560 692 514 708 l 575 686 l 781 694 l 764 621 l 629 621 q 656 519 656 581 q 578 328 656 415 q 363 240 501 240 l 321 243 q 272 149 272 182 q 298 106 272 117 q 420 84 324 96 q 565 36 517 72 q 613 -76 613 0 q 517 -254 613 -179 q 263 -329 421 -329 m 263 38 q 154 -39 200 6 q 108 -135 108 -83 q 150 -222 108 -187 q 284 -257 192 -257 q 453 -208 376 -257 q 531 -82 531 -160 q 499 -15 531 -35 q 380 15 467 6 q 263 38 293 25 m 374 311 q 524 377 471 311 q 576 508 576 443 q 546 605 576 574 q 437 636 515 636 q 306 570 358 636 q 253 431 253 504 q 374 311 253 311 m 460 847 l 486 956 l 557 956 l 532 847 l 460 847 z "},"Ģ":{"ha":796,"x_min":161,"x_max":926,"o":"m 444 -14 q 161 253 161 -14 q 278 742 161 524 q 433 914 336 849 q 651 979 529 979 q 889 949 768 979 l 926 939 l 904 872 q 653 903 764 903 q 465 840 543 903 q 342 678 388 778 q 250 251 250 475 q 453 63 250 63 q 614 81 531 63 l 642 88 l 719 418 l 560 418 l 576 492 l 822 492 l 713 25 q 444 -14 583 -14 m 367 -101 l 444 -101 l 315 -383 l 249 -383 l 367 -101 z "},"ģ":{"ha":644,"x_min":28,"x_max":781,"o":"m 572 1094 l 640 1094 l 522 813 l 444 813 l 572 1094 m 263 -329 q 91 -280 154 -329 q 28 -149 28 -231 q 215 69 28 -31 q 194 122 194 90 q 213 188 194 154 q 250 242 231 222 l 268 263 q 172 419 172 306 q 248 620 172 532 q 450 708 324 708 q 560 692 514 708 l 575 686 l 781 694 l 764 621 l 629 621 q 656 519 656 581 q 578 328 656 415 q 363 240 501 240 l 321 243 q 272 149 272 182 q 298 106 272 117 q 420 84 324 96 q 565 36 517 72 q 613 -76 613 0 q 517 -254 613 -179 q 263 -329 421 -329 m 263 38 q 154 -39 200 6 q 108 -135 108 -83 q 150 -222 108 -187 q 284 -257 192 -257 q 453 -208 376 -257 q 531 -82 531 -160 q 499 -15 531 -35 q 380 15 467 6 q 263 38 293 25 m 374 311 q 524 377 471 311 q 576 508 576 443 q 546 605 576 574 q 437 636 515 636 q 306 570 358 636 q 253 431 253 504 q 374 311 253 311 z "},"Ĥ":{"ha":867,"x_min":113,"x_max":978,"o":"m 669 0 l 772 447 l 300 447 l 197 0 l 113 0 l 335 965 l 421 965 l 318 524 l 790 524 l 893 965 l 978 965 l 756 0 l 669 0 m 475 1107 l 699 1293 l 740 1293 l 875 1107 l 797 1107 l 713 1226 l 567 1107 l 475 1107 z "},"ĥ":{"ha":688,"x_min":96,"x_max":810,"o":"m 546 708 q 665 663 624 708 q 707 545 707 617 q 679 353 707 474 l 597 0 l 515 0 l 597 350 q 622 524 622 457 q 519 633 622 633 q 415 590 474 633 q 321 503 357 546 l 285 458 l 179 0 l 96 0 l 328 1003 l 411 1003 l 308 558 q 472 692 379 653 q 546 708 511 708 m 410 1065 l 633 1251 l 675 1251 l 810 1065 l 732 1065 l 647 1185 l 501 1065 l 410 1065 z "},"Ħ":{"ha":890,"x_min":124,"x_max":1063,"o":"m 171 706 l 171 707 l 188 785 l 304 785 l 346 965 l 428 965 l 386 785 l 867 785 l 908 965 l 989 965 l 947 785 l 1063 785 l 1042 706 l 929 706 l 767 0 l 686 0 l 788 444 l 307 444 l 206 0 l 124 0 l 286 706 l 171 706 m 326 526 l 807 526 l 849 706 l 368 706 l 326 526 z "},"ħ":{"ha":688,"x_min":96,"x_max":707,"o":"m 546 708 q 665 663 624 708 q 707 545 707 617 q 679 353 707 474 l 597 0 l 515 0 l 597 350 q 622 524 622 457 q 519 633 622 633 q 415 590 474 633 q 321 503 357 546 l 285 458 l 179 0 l 96 0 l 285 821 l 208 821 l 225 894 l 303 894 l 328 1003 l 411 1003 l 386 894 l 596 894 l 578 821 l 368 821 l 308 558 q 472 692 379 653 q 546 708 511 708 z "},"Ĩ":{"ha":310,"x_min":113,"x_max":647,"o":"m 514 1118 q 411 1159 482 1118 q 325 1200 340 1200 q 222 1147 297 1200 l 199 1129 l 196 1190 q 331 1272 289 1272 q 443 1232 374 1272 q 528 1192 513 1192 q 621 1242 554 1192 l 643 1258 l 647 1200 q 514 1118 560 1118 m 113 0 l 335 965 l 421 965 l 197 0 l 113 0 z "},"ĩ":{"ha":274,"x_min":94,"x_max":540,"o":"m 94 0 l 256 694 l 339 694 l 178 0 l 94 0 m 418 861 q 325 895 392 861 q 243 929 258 929 q 153 883 215 929 l 132 868 l 129 933 q 260 1003 213 1003 q 354 969 290 1003 q 431 935 418 935 q 515 978 456 935 l 535 992 l 540 928 q 418 861 465 861 z "},"Ī":{"ha":310,"x_min":113,"x_max":625,"o":"m 214 1164 l 228 1228 l 625 1228 l 608 1164 l 214 1164 m 113 0 l 335 965 l 421 965 l 197 0 l 113 0 z "},"ī":{"ha":274,"x_min":94,"x_max":532,"o":"m 94 0 l 256 694 l 339 694 l 178 0 l 94 0 m 146 892 l 161 957 l 532 957 l 515 892 l 146 892 z "},"Ĭ":{"ha":310,"x_min":113,"x_max":635,"o":"m 333 1279 q 331 1239 331 1263 q 350 1195 331 1215 q 419 1175 369 1175 q 509 1204 469 1175 q 561 1279 549 1233 l 635 1279 q 552 1153 611 1197 q 408 1108 493 1108 q 283 1151 322 1108 q 256 1235 256 1182 q 260 1279 256 1256 l 333 1279 m 113 0 l 335 965 l 421 965 l 197 0 l 113 0 z "},"ĭ":{"ha":274,"x_min":94,"x_max":556,"o":"m 94 0 l 256 694 l 339 694 l 178 0 l 94 0 m 244 1010 q 240 969 240 992 q 256 925 240 947 q 336 893 278 893 q 483 1010 451 893 l 556 1010 q 315 825 503 825 q 192 876 229 825 q 168 947 168 911 q 174 1010 168 983 l 244 1010 z "},"Į":{"ha":310,"x_min":-33,"x_max":421,"o":"m 61 -281 q -33 -197 -33 -281 q 14 -92 -33 -150 q 114 8 61 -33 l 335 965 l 421 965 l 197 0 q 105 -85 151 -32 q 58 -175 58 -139 q 97 -206 58 -206 l 168 -197 l 160 -268 q 61 -281 101 -281 z "},"į":{"ha":275,"x_min":-50,"x_max":403,"o":"m 44 -281 q -50 -197 -50 -281 q -3 -91 -50 -150 q 97 10 44 -32 l 257 694 l 340 694 l 179 0 q 87 -87 132 -36 q 42 -175 42 -139 q 81 -206 42 -206 l 151 -197 l 143 -268 q 44 -281 85 -281 m 293 856 l 318 967 l 403 967 l 378 856 l 293 856 z "},"İ":{"ha":310,"x_min":113,"x_max":474,"o":"m 381 1172 l 404 1281 l 474 1281 l 450 1172 l 381 1172 m 113 0 l 335 965 l 421 965 l 197 0 l 113 0 z "},"ı":{"ha":274,"x_min":94,"x_max":339,"o":"m 94 0 l 256 694 l 339 694 l 178 0 l 94 0 z "},"Ĵ":{"ha":361,"x_min":10,"x_max":651,"o":"m 476 965 l 290 158 q 235 -13 260 31 q 182 -71 211 -57 q 10 -99 124 -99 l 24 -22 q 148 12 117 -21 q 207 168 179 44 l 392 965 l 476 965 m 251 1107 l 475 1293 l 517 1293 l 651 1107 l 574 1107 l 489 1226 l 343 1107 l 251 1107 z "},"ĵ":{"ha":274,"x_min":-128,"x_max":500,"o":"m 94 0 l 256 694 l 339 694 l 178 0 q 99 -207 142 -157 q -100 -329 57 -257 l -128 -261 q 34 -157 1 -196 q 94 0 67 -118 m 126 819 l 336 1021 l 379 1021 l 500 819 l 422 819 l 347 947 l 213 819 l 126 819 z "},"Ķ":{"ha":717,"x_min":113,"x_max":913,"o":"m 324 -101 l 401 -101 l 272 -383 l 206 -383 l 324 -101 m 600 0 l 444 438 l 297 435 l 197 0 l 113 0 l 335 965 l 421 965 l 315 511 l 451 514 l 815 965 l 913 965 l 519 478 l 690 0 l 600 0 z "},"ķ":{"ha":611,"x_min":96,"x_max":743,"o":"m 132 -383 l 250 -101 l 328 -101 l 199 -383 l 132 -383 m 179 0 l 96 0 l 328 1003 l 411 1003 l 275 413 l 374 415 l 644 694 l 743 694 l 436 375 l 578 0 l 489 0 l 358 343 l 257 342 l 179 0 z "},"Ĺ":{"ha":606,"x_min":113,"x_max":749,"o":"m 443 1097 l 432 1160 l 736 1292 l 749 1219 l 443 1097 m 596 0 l 113 0 l 335 965 l 421 965 l 215 76 l 613 76 l 596 0 z "},"ĺ":{"ha":288,"x_min":103,"x_max":656,"o":"m 103 0 l 335 1003 l 417 1003 l 185 0 l 103 0 m 350 1097 l 339 1160 l 643 1292 l 656 1219 l 350 1097 z "},"Ļ":{"ha":606,"x_min":113,"x_max":613,"o":"m 303 -101 l 381 -101 l 251 -383 l 185 -383 l 303 -101 m 596 0 l 113 0 l 335 965 l 421 965 l 215 76 l 613 76 l 596 0 z "},"ļ":{"ha":288,"x_min":-35,"x_max":417,"o":"m 83 -101 l 161 -101 l 32 -383 l -35 -383 l 83 -101 m 103 0 l 335 1003 l 417 1003 l 185 0 l 103 0 z "},"Ľ":{"ha":625,"x_min":113,"x_max":757,"o":"m 757 965 l 683 649 l 607 649 l 681 965 l 757 965 m 596 0 l 113 0 l 335 965 l 421 965 l 215 76 l 613 76 l 596 0 z "},"ľ":{"ha":332,"x_min":103,"x_max":569,"o":"m 569 965 l 494 649 l 419 649 l 493 965 l 569 965 m 103 0 l 335 1003 l 417 1003 l 185 0 l 103 0 z "},"Ł":{"ha":607,"x_min":94,"x_max":615,"o":"m 599 0 l 115 0 l 206 393 l 122 340 l 122 342 l 94 404 l 226 488 l 338 965 l 424 965 l 326 550 l 550 689 l 576 626 l 306 456 l 218 76 l 615 76 l 599 0 z "},"ł":{"ha":368,"x_min":101,"x_max":483,"o":"m 139 0 l 233 407 l 131 344 l 101 404 l 254 499 l 371 1003 l 453 1003 l 350 558 l 456 625 l 483 563 l 328 467 l 221 0 l 139 0 z "},"Ń":{"ha":868,"x_min":113,"x_max":979,"o":"m 563 1097 l 551 1160 l 856 1292 l 868 1219 l 563 1097 m 113 0 l 335 965 l 496 965 l 664 85 l 693 85 l 896 965 l 979 965 l 757 0 l 601 0 l 429 883 l 399 883 l 194 0 l 113 0 z "},"ń":{"ha":686,"x_min":94,"x_max":724,"o":"m 518 633 q 392 572 463 633 q 336 520 364 550 q 299 478 308 490 q 285 460 290 467 l 178 0 l 94 0 l 256 694 l 336 694 l 307 560 l 339 597 q 429 671 369 633 q 556 708 489 708 q 665 663 624 708 q 707 544 707 617 q 679 356 707 472 l 596 0 l 514 0 l 596 350 q 622 524 622 463 q 518 633 622 633 m 419 835 l 411 899 l 714 1029 l 724 956 l 419 835 z "},"Ņ":{"ha":868,"x_min":113,"x_max":979,"o":"m 390 -101 l 468 -101 l 339 -383 l 272 -383 l 390 -101 m 113 0 l 335 965 l 496 965 l 664 85 l 693 85 l 896 965 l 979 965 l 757 0 l 601 0 l 429 883 l 399 883 l 194 0 l 113 0 z "},"ņ":{"ha":686,"x_min":94,"x_max":707,"o":"m 544 708 q 665 663 624 708 q 707 544 707 617 q 679 356 707 472 l 596 0 l 514 0 l 596 350 q 622 524 622 463 q 518 633 622 633 q 414 590 472 633 q 319 503 356 547 l 285 460 l 178 0 l 94 0 l 256 694 l 336 694 l 307 560 q 472 692 376 653 q 544 708 510 708 m 183 -383 l 301 -101 l 379 -101 l 250 -383 l 183 -383 z "},"Ň":{"ha":868,"x_min":113,"x_max":979,"o":"m 921 1286 l 704 1100 l 654 1100 l 518 1286 l 600 1286 l 690 1163 l 833 1286 l 921 1286 m 113 0 l 335 965 l 496 965 l 664 85 l 693 85 l 896 965 l 979 965 l 757 0 l 601 0 l 429 883 l 399 883 l 194 0 l 113 0 z "},"ň":{"ha":686,"x_min":94,"x_max":768,"o":"m 544 708 q 665 663 624 708 q 707 544 707 617 q 679 356 707 472 l 596 0 l 514 0 l 596 350 q 622 524 622 463 q 518 633 622 633 q 414 590 472 633 q 319 503 356 547 l 285 460 l 178 0 l 94 0 l 256 694 l 336 694 l 307 560 q 472 692 376 653 q 544 708 510 708 m 551 819 l 507 819 l 389 1021 l 465 1021 l 544 889 l 682 1021 l 768 1021 l 551 819 z "},"Ŋ":{"ha":868,"x_min":113,"x_max":979,"o":"m 113 0 l 335 965 l 497 965 l 665 85 l 694 85 l 897 965 l 979 965 l 758 6 q 724 -126 739 -83 q 677 -202 708 -169 q 603 -243 646 -235 q 481 -251 560 -251 l 494 -175 q 616 -144 585 -175 q 674 0 647 -112 l 600 0 l 428 883 l 399 883 l 193 0 l 113 0 z "},"ŋ":{"ha":679,"x_min":94,"x_max":704,"o":"m 311 597 q 417 672 354 638 q 551 707 479 707 q 661 672 624 707 q 703 561 703 636 q 674 360 703 486 l 589 -3 q 503 -190 558 -128 q 308 -324 449 -253 l 292 -247 q 449 -136 408 -185 q 517 21 490 -87 l 596 360 q 622 526 622 471 q 596 603 622 581 q 518 626 569 626 q 413 599 467 626 q 326 546 358 572 l 294 519 l 172 0 l 94 0 l 257 694 l 336 694 l 311 597 z "},"Ō":{"ha":876,"x_min":163,"x_max":935,"o":"m 250 276 q 299 111 250 160 q 454 63 347 63 q 635 121 561 63 q 791 363 736 201 q 846 688 846 524 q 794 851 846 799 q 643 903 743 903 q 472 847 543 903 q 309 599 368 767 q 250 276 250 432 m 935 692 q 875 335 935 504 q 706 76 815 167 q 449 -14 597 -14 q 232 53 301 -14 q 163 285 163 119 q 220 615 163 450 q 387 880 278 781 q 638 979 496 979 q 935 692 935 979 m 500 1150 l 514 1214 l 911 1214 l 894 1150 l 500 1150 z "},"ō":{"ha":686,"x_min":131,"x_max":733,"o":"m 479 707 q 713 478 713 707 q 615 129 713 272 q 358 -14 517 -14 q 131 206 131 -14 q 230 560 131 413 q 479 707 329 707 m 358 60 q 553 183 478 60 q 628 479 628 306 q 590 592 628 550 q 479 635 553 635 q 289 507 364 635 q 214 206 214 379 q 358 60 214 60 m 347 892 l 363 957 l 733 957 l 717 892 l 347 892 z "},"Ŏ":{"ha":876,"x_min":163,"x_max":935,"o":"m 608 1281 q 606 1240 606 1264 q 625 1197 606 1217 q 694 1176 644 1176 q 784 1206 744 1176 q 836 1281 824 1235 l 910 1281 q 827 1154 886 1199 q 683 1110 768 1110 q 558 1153 597 1110 q 531 1236 531 1183 q 535 1281 531 1257 l 608 1281 m 250 276 q 299 111 250 160 q 454 63 347 63 q 635 121 561 63 q 791 363 736 201 q 846 688 846 524 q 794 851 846 799 q 643 903 743 903 q 472 847 543 903 q 309 599 368 767 q 250 276 250 432 m 935 692 q 875 335 935 504 q 706 76 815 167 q 449 -14 597 -14 q 232 53 301 -14 q 163 285 163 119 q 220 615 163 450 q 387 880 278 781 q 638 979 496 979 q 935 692 935 979 z "},"ŏ":{"ha":686,"x_min":131,"x_max":763,"o":"m 479 707 q 713 478 713 707 q 615 129 713 272 q 358 -14 517 -14 q 131 206 131 -14 q 230 560 131 413 q 479 707 329 707 m 358 60 q 553 183 478 60 q 628 479 628 306 q 590 592 628 550 q 479 635 553 635 q 289 507 364 635 q 214 206 214 379 q 358 60 214 60 m 451 1010 q 447 969 447 992 q 461 925 447 947 q 543 893 485 893 q 690 1010 658 893 l 763 1010 q 522 825 710 825 q 400 876 436 825 q 375 947 375 911 q 381 1010 375 983 l 451 1010 z "},"Ő":{"ha":876,"x_min":163,"x_max":1039,"o":"m 786 1082 l 747 1121 l 993 1279 l 1039 1239 l 786 1082 m 529 1083 l 488 1121 l 738 1281 l 781 1239 l 529 1083 m 250 276 q 299 111 250 160 q 454 63 347 63 q 635 121 561 63 q 791 363 736 201 q 846 688 846 524 q 794 851 846 799 q 643 903 743 903 q 472 847 543 903 q 309 599 368 767 q 250 276 250 432 m 935 692 q 875 335 935 504 q 706 76 815 167 q 449 -14 597 -14 q 232 53 301 -14 q 163 285 163 119 q 220 615 163 450 q 387 880 278 781 q 638 979 496 979 q 935 692 935 979 z "},"ő":{"ha":686,"x_min":131,"x_max":856,"o":"m 479 707 q 713 478 713 707 q 615 129 713 272 q 358 -14 517 -14 q 131 206 131 -14 q 230 560 131 413 q 479 707 329 707 m 358 60 q 553 183 478 60 q 628 479 628 306 q 590 592 628 550 q 479 635 553 635 q 289 507 364 635 q 214 206 214 379 q 358 60 214 60 m 611 814 l 572 863 l 811 1038 l 856 988 l 611 814 m 363 814 l 324 863 l 563 1038 l 606 988 l 363 814 z "},"Œ":{"ha":1201,"x_min":151,"x_max":1367,"o":"m 414 -14 q 217 47 279 -14 q 153 238 153 111 q 186 479 153 331 q 355 858 247 733 q 649 982 463 982 q 839 968 728 982 l 1367 968 l 1349 883 l 900 883 l 815 535 l 1185 535 l 1167 451 l 799 454 l 711 85 l 1158 85 l 1138 -1 l 613 -1 q 414 -14 469 -14 m 239 260 q 425 72 239 72 q 628 83 519 72 l 819 888 q 636 897 742 897 q 403 797 485 897 q 272 481 322 697 q 239 260 239 350 z "},"œ":{"ha":1124,"x_min":125,"x_max":1172,"o":"m 692 313 q 674 181 674 235 q 707 97 674 128 q 796 65 740 65 q 1011 75 874 65 l 1051 78 l 1039 6 q 788 -14 894 -14 q 601 115 628 -14 q 498 17 560 49 q 334 -14 436 -14 q 181 26 232 -14 q 126 176 126 69 q 151 358 126 256 q 275 624 194 542 q 511 707 356 707 q 708 564 686 707 q 971 707 793 707 q 1171 522 1167 707 q 1171 482 1171 515 q 1153 378 1171 449 l 1133 310 l 692 313 m 499 629 q 443 629 499 629 q 328 567 386 629 q 239 373 269 504 q 208 181 208 242 q 244 93 208 121 q 344 65 279 65 q 449 81 410 65 q 513 118 488 96 q 558 182 538 140 q 613 341 589 244 q 636 476 636 438 q 632 535 636 515 q 499 629 613 629 m 954 628 q 708 383 767 628 l 1071 381 q 1089 508 1089 454 q 954 628 1088 628 z "},"Ŕ":{"ha":786,"x_min":113,"x_max":874,"o":"m 874 743 q 796 498 874 588 q 618 386 718 408 q 731 0 618 386 l 644 0 l 538 375 l 285 375 l 197 0 l 113 0 l 335 965 l 635 965 q 815 913 756 965 q 874 743 874 861 m 785 740 q 747 856 785 822 q 624 890 708 890 l 403 890 l 301 450 l 526 450 q 714 531 643 450 q 785 740 785 611 m 504 1097 l 493 1160 l 797 1292 l 810 1219 l 504 1097 z "},"ŕ":{"ha":432,"x_min":94,"x_max":589,"o":"m 94 0 l 257 694 l 339 694 l 314 590 q 574 708 447 682 l 553 624 q 342 536 472 604 l 299 514 l 179 0 l 94 0 m 285 835 l 276 899 l 579 1029 l 589 956 l 285 835 z "},"Ŗ":{"ha":786,"x_min":113,"x_max":874,"o":"m 239 -383 l 357 -101 l 435 -101 l 306 -383 l 239 -383 m 635 965 q 815 913 756 965 q 874 743 874 861 q 796 498 874 588 q 618 386 718 408 l 731 0 l 644 0 l 538 375 l 285 375 l 197 0 l 113 0 l 335 965 l 635 965 m 785 740 q 747 856 785 822 q 624 890 708 890 l 403 890 l 301 450 l 526 450 q 714 531 643 450 q 785 740 785 611 z "},"ŗ":{"ha":432,"x_min":-35,"x_max":574,"o":"m 94 0 l 257 694 l 339 694 l 314 590 q 574 708 447 682 l 553 624 q 342 536 472 604 l 299 514 l 179 0 l 94 0 m 83 -101 l 161 -101 l 32 -383 l -35 -383 l 83 -101 z "},"Ř":{"ha":786,"x_min":113,"x_max":874,"o":"m 846 1286 l 629 1100 l 579 1100 l 443 1286 l 525 1286 l 615 1163 l 758 1286 l 846 1286 m 874 743 q 796 498 874 588 q 618 386 718 408 q 731 0 618 386 l 644 0 l 538 375 l 285 375 l 197 0 l 113 0 l 335 965 l 635 965 q 815 913 756 965 q 874 743 874 861 m 785 740 q 747 856 785 822 q 624 890 708 890 l 403 890 l 301 450 l 526 450 q 714 531 643 450 q 785 740 785 611 z "},"ř":{"ha":432,"x_min":94,"x_max":649,"o":"m 94 0 l 257 694 l 339 694 l 314 590 q 574 708 447 682 l 553 624 q 342 536 472 604 l 299 514 l 179 0 l 94 0 m 432 819 l 388 819 l 269 1021 l 346 1021 l 425 889 l 563 1021 l 649 1021 l 432 819 z "},"Ś":{"ha":694,"x_min":79,"x_max":821,"o":"m 806 878 q 555 903 661 903 q 383 846 449 903 q 317 681 317 789 q 354 594 317 621 q 501 532 392 568 q 653 453 610 496 q 697 319 697 410 q 605 76 697 165 q 356 -14 513 -14 q 119 11 250 -14 l 79 18 l 94 88 q 368 63 257 63 q 544 129 479 63 q 610 314 610 196 q 578 403 610 376 q 438 465 546 431 q 280 543 331 500 q 229 675 229 586 q 322 899 229 819 q 571 979 415 979 q 786 953 679 979 l 821 943 l 806 878 m 492 1097 l 481 1160 l 785 1292 l 797 1219 l 492 1097 z "},"ś":{"ha":594,"x_min":72,"x_max":696,"o":"m 653 615 q 440 635 524 635 q 308 590 357 635 q 260 483 260 546 q 287 428 260 446 q 408 388 314 410 q 544 336 501 365 q 586 236 586 307 q 502 51 586 115 q 288 -14 418 -14 q 103 8 192 -14 l 72 15 l 88 82 q 301 60 215 60 q 444 100 388 60 q 501 219 501 140 q 472 281 501 264 q 351 320 443 299 q 218 372 260 342 q 176 465 176 401 q 252 639 176 571 q 446 707 328 707 q 638 689 538 707 l 671 682 l 653 615 m 392 835 l 383 899 l 686 1029 l 696 956 l 392 835 z "},"Ŝ":{"ha":694,"x_min":79,"x_max":821,"o":"m 806 878 q 555 903 661 903 q 383 846 449 903 q 317 681 317 789 q 354 594 317 621 q 501 532 392 568 q 653 453 610 496 q 697 319 697 410 q 605 76 697 165 q 356 -14 513 -14 q 119 11 250 -14 l 79 18 l 94 88 q 368 63 257 63 q 544 129 479 63 q 610 314 610 196 q 578 403 610 376 q 438 465 546 431 q 280 543 331 500 q 229 675 229 586 q 322 899 229 819 q 571 979 415 979 q 786 953 679 979 l 821 943 l 806 878 m 400 1107 l 624 1293 l 665 1293 l 800 1107 l 722 1107 l 638 1226 l 492 1107 l 400 1107 z "},"ŝ":{"ha":594,"x_min":72,"x_max":681,"o":"m 653 615 q 440 635 524 635 q 308 590 357 635 q 260 483 260 546 q 287 428 260 446 q 408 388 314 410 q 544 336 501 365 q 586 236 586 307 q 502 51 586 115 q 288 -14 418 -14 q 103 8 192 -14 l 72 15 l 88 82 q 301 60 215 60 q 444 100 388 60 q 501 219 501 140 q 472 281 501 264 q 351 320 443 299 q 218 372 260 342 q 176 465 176 401 q 252 639 176 571 q 446 707 328 707 q 638 689 538 707 l 671 682 l 653 615 m 307 819 l 517 1021 l 560 1021 l 681 819 l 603 819 l 528 947 l 393 819 l 307 819 z "},"Ş":{"ha":694,"x_min":79,"x_max":821,"o":"m 361 -67 q 476 -142 476 -67 q 472 -172 476 -156 q 328 -287 446 -287 l 219 -279 l 235 -218 q 328 -224 289 -224 q 400 -169 386 -224 q 401 -154 401 -161 q 353 -119 401 -119 l 292 -119 l 317 -12 q 113 11 213 -10 l 79 18 l 94 88 q 368 63 257 63 q 544 129 479 63 q 610 314 610 196 q 578 403 610 376 q 438 465 546 431 q 280 543 331 500 q 229 675 229 586 q 322 899 229 819 q 571 979 415 979 q 786 953 679 979 l 821 943 l 806 878 q 555 903 661 903 q 383 846 449 903 q 317 681 317 789 q 354 594 317 621 q 501 532 392 568 q 653 453 610 496 q 697 319 697 410 q 608 79 697 168 q 368 -14 519 -10 l 354 -67 l 361 -67 z "},"ş":{"ha":594,"x_min":71,"x_max":669,"o":"m 296 -67 q 411 -142 411 -67 q 407 -172 411 -156 q 263 -287 381 -287 l 154 -279 l 169 -218 q 263 -224 224 -224 q 335 -169 321 -224 q 336 -154 336 -161 q 288 -119 336 -119 l 226 -119 l 251 -12 q 96 8 171 -10 l 71 15 l 86 82 q 300 60 214 60 q 443 100 386 60 q 500 219 500 140 q 471 281 500 264 q 350 320 442 299 q 217 372 258 342 q 175 465 175 401 q 251 639 175 571 q 444 707 326 707 q 636 689 536 707 l 669 682 l 651 615 q 439 635 522 635 q 307 590 356 635 q 258 483 258 546 q 285 428 258 446 q 406 388 313 410 q 542 336 500 365 q 585 236 585 307 q 506 55 585 119 q 303 -14 426 -10 l 289 -67 l 296 -67 z "},"Š":{"ha":694,"x_min":79,"x_max":856,"o":"m 856 1292 l 639 1106 l 589 1106 l 453 1292 l 535 1292 l 625 1168 l 768 1292 l 856 1292 m 806 878 q 555 903 661 903 q 383 846 449 903 q 317 681 317 789 q 354 594 317 621 q 501 532 392 568 q 653 453 610 496 q 697 319 697 410 q 605 76 697 165 q 356 -14 513 -14 q 119 11 250 -14 l 79 18 l 94 88 q 368 63 257 63 q 544 129 479 63 q 610 314 610 196 q 578 403 610 376 q 438 465 546 431 q 280 543 331 500 q 229 675 229 586 q 322 899 229 819 q 571 979 415 979 q 786 953 679 979 l 821 943 l 806 878 z "},"š":{"ha":594,"x_min":72,"x_max":731,"o":"m 653 615 q 440 635 524 635 q 308 590 357 635 q 260 483 260 546 q 287 428 260 446 q 408 388 314 410 q 544 336 501 365 q 586 236 586 307 q 502 51 586 115 q 288 -14 418 -14 q 103 8 192 -14 l 72 15 l 88 82 q 301 60 215 60 q 444 100 388 60 q 501 219 501 140 q 472 281 501 264 q 351 320 443 299 q 218 372 260 342 q 176 465 176 401 q 252 639 176 571 q 446 707 328 707 q 638 689 538 707 l 671 682 l 653 615 m 514 819 l 469 819 l 351 1021 l 428 1021 l 507 889 l 644 1021 l 731 1021 l 514 819 z "},"Ţ":{"ha":656,"x_min":200,"x_max":861,"o":"m 342 -67 q 457 -142 457 -67 q 453 -172 457 -156 q 308 -287 426 -287 l 200 -279 l 215 -218 q 308 -224 269 -224 q 381 -169 367 -224 q 382 -154 382 -161 q 333 -119 382 -119 l 272 -119 l 301 0 l 283 0 l 488 889 l 218 889 l 236 965 l 861 965 l 843 889 l 574 889 l 368 0 l 351 0 l 335 -67 l 342 -67 z "},"ţ":{"ha":438,"x_min":150,"x_max":576,"o":"m 292 -67 q 407 -142 407 -67 q 403 -172 407 -156 q 258 -287 376 -287 l 150 -279 l 165 -218 q 258 -224 219 -224 q 331 -169 317 -224 q 332 -154 332 -161 q 283 -119 332 -119 l 222 -119 l 249 -7 q 161 114 161 15 q 185 258 161 164 l 269 621 l 175 621 l 193 694 l 288 694 l 339 907 l 422 907 l 369 694 l 576 694 l 558 621 l 353 621 l 267 254 q 249 131 249 176 q 325 60 249 60 l 436 68 l 431 3 q 300 -14 358 -14 l 299 -14 l 285 -67 l 292 -67 z "},"Ť":{"ha":656,"x_min":218,"x_max":861,"o":"m 806 1286 l 589 1100 l 539 1100 l 403 1286 l 485 1286 l 575 1163 l 718 1286 l 806 1286 m 218 889 l 236 965 l 861 965 l 843 889 l 574 889 l 368 0 l 283 0 l 488 889 l 218 889 z "},"ť":{"ha":538,"x_min":161,"x_max":768,"o":"m 768 965 l 694 649 l 618 649 l 692 965 l 768 965 m 249 131 q 325 60 249 60 l 436 68 l 431 3 q 297 -14 358 -14 q 198 19 235 -14 q 161 108 161 53 q 185 258 161 164 l 269 621 l 175 621 l 193 694 l 288 694 l 339 907 l 422 907 l 369 694 l 576 694 l 558 621 l 353 621 l 267 254 q 249 131 249 176 z "},"Ŧ":{"ha":663,"x_min":164,"x_max":864,"o":"m 221 889 l 239 965 l 864 965 l 846 889 l 576 889 l 488 506 l 713 506 l 692 426 l 469 426 l 371 0 l 286 0 l 383 426 l 164 426 l 182 506 l 401 506 l 490 889 l 221 889 z "},"ŧ":{"ha":444,"x_min":139,"x_max":581,"o":"m 253 131 q 329 60 253 60 l 440 68 l 435 3 q 301 -14 363 -14 q 202 19 239 -14 q 165 108 165 53 q 189 258 165 164 l 215 372 l 139 372 l 156 446 l 232 446 l 274 621 l 179 621 l 197 694 l 292 694 l 343 907 l 426 907 l 374 694 l 581 694 l 563 621 l 357 621 l 315 446 l 515 446 l 497 372 l 299 372 l 271 254 q 253 131 253 176 z "},"Ũ":{"ha":824,"x_min":160,"x_max":942,"o":"m 768 1122 q 665 1163 736 1122 q 578 1204 594 1204 q 478 1151 549 1204 l 453 1133 l 450 1194 q 585 1276 543 1276 q 697 1236 628 1276 q 781 1196 767 1196 q 875 1246 808 1196 l 897 1263 l 901 1204 q 768 1122 814 1122 m 244 193 q 438 64 244 64 q 613 117 554 64 q 699 286 672 171 l 856 965 l 942 965 l 785 285 q 667 59 749 132 q 444 -14 585 -14 q 160 183 160 -14 q 175 303 160 246 l 328 965 l 413 965 l 258 296 q 244 193 244 240 z "},"ũ":{"ha":686,"x_min":139,"x_max":751,"o":"m 629 861 q 536 895 603 861 q 454 929 469 929 q 364 883 426 929 l 343 868 l 340 933 q 471 1003 424 1003 q 565 969 501 1003 q 642 935 629 935 q 726 978 667 935 l 746 992 l 751 928 q 629 861 676 861 m 301 -14 q 181 32 224 -14 q 139 150 139 78 q 167 339 139 222 l 250 694 l 332 694 l 250 344 q 224 175 224 232 q 328 61 224 61 q 432 104 374 61 q 525 190 490 147 l 561 233 l 668 694 l 751 694 l 590 0 l 510 0 l 539 135 q 375 3 469 42 q 301 -14 336 -14 z "},"Ū":{"ha":824,"x_min":160,"x_max":942,"o":"m 244 193 q 438 64 244 64 q 613 117 554 64 q 699 286 672 171 l 856 965 l 942 965 l 785 285 q 667 59 749 132 q 444 -14 585 -14 q 160 183 160 -14 q 175 303 160 246 l 328 965 l 413 965 l 258 296 q 244 193 244 240 m 469 1150 l 483 1214 l 881 1214 l 864 1150 l 469 1150 z "},"ū":{"ha":686,"x_min":139,"x_max":751,"o":"m 301 -14 q 181 32 224 -14 q 139 150 139 78 q 167 339 139 222 l 250 694 l 332 694 l 250 344 q 224 175 224 232 q 328 61 224 61 q 432 104 374 61 q 525 190 490 147 l 561 233 l 668 694 l 751 694 l 590 0 l 510 0 l 539 135 q 375 3 469 42 q 301 -14 336 -14 m 344 892 l 360 957 l 731 957 l 714 892 l 344 892 z "},"Ŭ":{"ha":824,"x_min":160,"x_max":942,"o":"m 575 1281 q 572 1240 572 1264 q 592 1197 572 1217 q 661 1176 611 1176 q 751 1206 711 1176 q 803 1281 790 1235 l 876 1281 q 794 1154 853 1199 q 649 1110 735 1110 q 525 1153 564 1110 q 497 1236 497 1183 q 501 1281 497 1257 l 575 1281 m 258 296 q 244 193 244 240 q 438 64 244 64 q 613 117 554 64 q 699 286 672 171 l 856 965 l 942 965 l 785 285 q 667 59 749 132 q 444 -14 585 -14 q 160 183 160 -14 q 175 303 160 246 l 328 965 l 413 965 l 258 296 z "},"ŭ":{"ha":686,"x_min":139,"x_max":754,"o":"m 301 -14 q 181 32 224 -14 q 139 150 139 78 q 167 339 139 222 l 250 694 l 332 694 l 250 344 q 224 175 224 232 q 328 61 224 61 q 432 104 374 61 q 525 190 490 147 l 561 233 l 668 694 l 751 694 l 590 0 l 510 0 l 539 135 q 375 3 469 42 q 301 -14 336 -14 m 443 1010 q 439 969 439 992 q 453 925 439 947 q 535 893 476 893 q 682 1010 650 893 l 754 1010 q 514 825 701 825 q 392 876 428 825 q 367 947 367 911 q 372 1010 367 983 l 443 1010 z "},"Ů":{"ha":824,"x_min":160,"x_max":942,"o":"m 761 1072 q 652 1038 717 1038 q 558 1072 588 1038 q 542 1120 542 1094 q 549 1169 542 1146 q 610 1269 567 1235 q 716 1303 654 1303 q 807 1269 778 1303 q 825 1221 825 1249 q 761 1072 825 1124 m 606 1169 q 603 1144 603 1158 q 615 1114 603 1131 q 665 1097 628 1097 q 763 1169 744 1097 q 764 1194 764 1179 q 750 1226 764 1210 q 701 1243 736 1243 q 606 1169 622 1243 m 244 193 q 438 64 244 64 q 613 117 554 64 q 699 286 672 171 l 856 965 l 942 965 l 785 285 q 667 59 749 132 q 444 -14 585 -14 q 160 183 160 -14 q 175 303 160 246 l 328 965 l 413 965 l 258 296 q 244 193 244 240 z "},"ů":{"ha":686,"x_min":139,"x_max":751,"o":"m 465 988 q 563 1026 508 1026 q 639 999 617 1026 q 661 931 661 972 q 613 808 661 854 q 505 763 565 763 q 422 799 444 763 q 407 849 407 822 q 465 988 407 935 m 475 839 q 481 829 475 839 q 518 819 488 819 q 578 845 549 819 q 608 917 608 871 q 596 948 608 929 q 553 967 583 967 q 493 942 524 967 q 463 871 463 918 q 475 839 463 858 m 301 -14 q 181 32 224 -14 q 139 150 139 78 q 167 339 139 222 l 250 694 l 332 694 l 250 344 q 224 175 224 232 q 328 61 224 61 q 432 104 374 61 q 525 190 490 147 l 561 233 l 668 694 l 751 694 l 590 0 l 510 0 l 539 135 q 375 3 469 42 q 301 -14 336 -14 z "},"Ű":{"ha":824,"x_min":160,"x_max":992,"o":"m 739 1054 l 700 1093 l 946 1251 l 992 1211 l 739 1054 m 482 1056 l 440 1093 l 690 1253 l 733 1211 l 482 1056 m 244 193 q 438 64 244 64 q 613 117 554 64 q 699 286 672 171 l 856 965 l 942 965 l 785 285 q 667 59 749 132 q 444 -14 585 -14 q 160 183 160 -14 q 175 303 160 246 l 328 965 l 413 965 l 258 296 q 244 193 244 240 z "},"ű":{"ha":686,"x_min":139,"x_max":885,"o":"m 640 814 l 601 863 l 840 1038 l 885 988 l 640 814 m 392 814 l 353 863 l 592 1038 l 635 988 l 392 814 m 301 -14 q 181 32 224 -14 q 139 150 139 78 q 167 339 139 222 l 250 694 l 332 694 l 250 344 q 224 175 224 232 q 328 61 224 61 q 432 104 374 61 q 525 190 490 147 l 561 233 l 668 694 l 751 694 l 590 0 l 510 0 l 539 135 q 375 3 469 42 q 301 -14 336 -14 z "},"Ų":{"ha":825,"x_min":160,"x_max":942,"o":"m 244 193 q 438 64 244 64 q 613 117 554 64 q 699 286 672 171 l 856 965 l 942 965 l 785 285 q 690 81 754 153 q 513 -7 625 10 q 431 -92 469 -43 q 392 -175 392 -142 q 431 -206 392 -206 l 501 -197 l 493 -268 q 394 -281 435 -281 q 300 -197 300 -281 q 421 -14 300 -122 q 228 38 297 -11 q 160 183 160 86 q 175 303 160 246 l 328 965 l 413 965 l 258 296 q 244 193 244 240 z "},"ų":{"ha":686,"x_min":139,"x_max":751,"o":"m 454 -175 q 493 -206 454 -206 l 564 -197 l 556 -268 q 457 -281 497 -281 q 363 -197 363 -281 q 410 -92 363 -150 q 511 10 458 -33 l 539 135 q 375 3 469 42 q 301 -14 336 -14 q 181 32 224 -14 q 139 150 139 78 q 167 339 139 222 l 250 694 l 332 694 l 250 344 q 224 175 224 232 q 328 61 224 61 q 432 104 374 61 q 525 190 490 147 l 561 233 l 668 694 l 751 694 l 590 0 q 500 -86 546 -33 q 454 -175 454 -139 z "},"Ŵ":{"ha":1139,"x_min":228,"x_max":1313,"o":"m 608 1101 l 832 1288 l 874 1288 l 1008 1101 l 931 1101 l 846 1221 l 700 1101 l 608 1101 m 264 965 l 349 965 l 308 78 l 350 78 l 739 951 l 831 951 l 810 78 l 849 78 l 1226 965 l 1313 965 l 897 0 l 735 0 l 757 818 l 394 0 l 228 0 l 264 965 z "},"ŵ":{"ha":1004,"x_min":200,"x_max":1119,"o":"m 203 694 l 286 694 l 282 72 l 306 72 l 607 681 l 707 681 l 721 72 l 746 72 l 1035 694 l 1119 694 l 797 0 l 643 0 l 632 574 l 351 0 l 200 0 l 203 694 m 483 819 l 693 1021 l 736 1021 l 857 819 l 779 819 l 704 947 l 569 819 l 483 819 z "},"Ŷ":{"ha":681,"x_min":240,"x_max":882,"o":"m 386 1101 l 610 1288 l 651 1288 l 786 1101 l 708 1101 l 624 1221 l 478 1101 l 386 1101 m 882 965 l 472 414 l 375 0 l 293 0 l 390 422 l 240 965 l 326 965 l 450 497 l 790 965 l 882 965 z "},"ŷ":{"ha":628,"x_min":147,"x_max":751,"o":"m 197 694 l 279 694 l 299 72 l 346 72 l 664 694 l 751 694 l 232 -311 l 147 -311 l 311 0 l 221 0 l 197 694 m 311 819 l 521 1021 l 564 1021 l 685 819 l 607 819 l 532 947 l 397 819 l 311 819 z "},"Ÿ":{"ha":681,"x_min":240,"x_max":882,"o":"m 422 1138 l 447 1253 l 517 1253 l 489 1138 l 422 1138 m 678 1138 l 706 1253 l 774 1253 l 746 1138 l 678 1138 m 882 965 l 472 414 l 375 0 l 293 0 l 390 422 l 240 965 l 326 965 l 450 497 l 790 965 l 882 965 z "},"Ź":{"ha":689,"x_min":53,"x_max":857,"o":"m 472 1097 l 461 1160 l 765 1292 l 778 1219 l 472 1097 m 261 889 l 279 965 l 857 965 l 826 836 l 171 110 l 163 76 l 649 76 l 631 0 l 53 0 l 82 125 l 736 850 l 746 889 l 261 889 z "},"ź":{"ha":581,"x_min":54,"x_max":688,"o":"m 215 694 l 688 694 l 672 622 l 168 72 l 544 72 l 528 0 l 54 0 l 67 72 l 569 621 l 196 621 l 215 694 m 365 835 l 357 899 l 660 1029 l 669 956 l 365 835 z "},"Ż":{"ha":689,"x_min":53,"x_max":857,"o":"m 556 1172 l 579 1281 l 649 1281 l 625 1172 l 556 1172 m 261 889 l 279 965 l 857 965 l 826 836 l 171 110 l 163 76 l 649 76 l 631 0 l 53 0 l 82 125 l 736 850 l 746 889 l 261 889 z "},"ż":{"ha":581,"x_min":54,"x_max":688,"o":"m 215 694 l 688 694 l 672 622 l 168 72 l 544 72 l 528 0 l 54 0 l 67 72 l 569 621 l 196 621 l 215 694 m 435 847 l 461 956 l 532 956 l 507 847 l 435 847 z "},"Ž":{"ha":689,"x_min":53,"x_max":857,"o":"m 833 1285 l 617 1099 l 567 1099 l 431 1285 l 513 1285 l 603 1161 l 746 1285 l 833 1285 m 261 889 l 279 965 l 857 965 l 826 836 l 171 110 l 163 76 l 649 76 l 631 0 l 53 0 l 82 125 l 736 850 l 746 889 l 261 889 z "},"ž":{"ha":581,"x_min":54,"x_max":703,"o":"m 486 819 l 442 819 l 324 1021 l 400 1021 l 479 889 l 617 1021 l 703 1021 l 486 819 m 196 621 l 215 694 l 688 694 l 672 622 l 168 72 l 544 72 l 528 0 l 54 0 l 67 72 l 569 621 l 196 621 z "},"ƒ":{"ha":778,"x_min":39,"x_max":857,"o":"m 129 -337 q 39 -328 83 -337 l 57 -254 q 150 -258 106 -258 q 285 -87 242 -258 l 424 493 l 275 493 l 292 574 l 442 574 l 461 656 q 558 883 503 819 q 710 946 613 946 q 857 933 807 946 l 838 858 q 700 864 739 864 q 602 813 636 864 q 538 633 568 761 l 524 574 l 750 574 l 731 493 l 506 493 l 365 -94 q 276 -282 333 -226 q 129 -337 219 -337 z "},"Ǻ":{"ha":771,"x_min":38,"x_max":853,"o":"m 514 932 q 492 983 492 956 q 499 1035 492 1011 q 560 1134 517 1100 q 666 1168 604 1168 q 757 1135 728 1168 q 775 1086 775 1114 q 706 935 775 986 l 738 0 l 653 0 l 642 265 l 261 265 l 124 0 l 38 0 l 514 932 m 579 889 l 299 340 l 642 340 l 624 889 l 579 889 m 549 1224 l 540 1288 l 843 1418 l 853 1344 l 549 1224 m 553 1011 q 590 965 553 975 l 643 965 q 713 1035 697 978 q 714 1060 714 1044 q 700 1092 714 1075 q 651 1108 686 1108 q 556 1035 572 1108 q 553 1011 553 1022 z "},"ǻ":{"ha":685,"x_min":126,"x_max":776,"o":"m 472 1071 l 463 1142 l 765 1272 l 776 1192 l 472 1071 m 300 -14 q 126 182 126 -14 q 214 528 126 364 q 324 658 256 607 q 475 708 393 708 q 696 683 550 708 l 744 675 l 639 224 q 606 38 619 146 l 600 1 l 519 -1 q 546 157 540 128 q 531 138 540 150 q 495 97 522 126 q 440 46 468 68 q 374 5 413 24 q 300 -14 335 -14 m 649 614 q 472 635 549 635 q 332 558 394 635 q 241 381 269 482 q 213 201 213 281 q 238 90 213 121 q 315 60 264 60 q 426 108 367 60 q 525 206 486 157 l 564 256 l 649 614 m 479 988 q 576 1026 522 1026 q 653 999 631 1026 q 675 931 675 972 q 627 808 675 854 q 519 763 579 763 q 436 799 458 763 q 421 849 421 822 q 479 988 421 935 m 489 839 q 495 829 489 839 q 532 819 501 819 q 592 845 563 819 q 622 917 622 871 q 610 948 622 929 q 567 967 597 967 q 507 942 538 967 q 476 871 476 918 q 489 839 476 858 z "},"Ǽ":{"ha":1092,"x_min":38,"x_max":1257,"o":"m 496 0 l 557 265 l 257 265 l 119 0 l 38 0 l 531 968 l 1257 968 l 1240 889 l 788 892 l 700 531 l 1075 531 l 1058 453 l 683 453 l 594 79 l 1046 79 l 1029 0 l 496 0 m 572 889 l 294 343 l 575 343 l 707 889 l 572 889 m 778 1097 l 767 1160 l 1071 1292 l 1083 1219 l 778 1097 z "},"ǽ":{"ha":1051,"x_min":89,"x_max":1099,"o":"m 608 197 q 725 65 608 65 q 942 75 804 65 l 982 78 l 967 6 q 718 -14 822 -14 q 544 64 588 -14 q 383 10 476 35 q 229 -14 290 -14 q 111 47 143 -14 q 89 126 89 86 q 176 339 89 275 q 343 399 239 383 q 560 422 447 415 q 582 533 582 489 q 489 625 582 625 q 281 614 421 625 l 240 610 l 253 689 q 490 707 408 707 q 661 594 647 707 q 901 707 747 707 q 1099 519 1094 707 q 1079 376 1099 446 l 1061 310 l 625 313 q 608 197 608 242 m 176 153 q 254 64 176 64 q 525 125 351 64 q 519 199 519 153 q 546 350 519 244 q 335 326 393 335 q 183 199 210 307 q 176 153 176 175 m 1017 500 q 883 631 1017 631 q 731 572 790 631 q 640 383 671 513 l 999 381 q 1017 500 1017 454 m 613 835 l 604 899 l 907 1029 l 917 956 l 613 835 z "},"Ǿ":{"ha":879,"x_min":101,"x_max":996,"o":"m 226 58 q 164 288 164 125 q 222 615 164 450 q 388 880 279 781 q 639 979 497 979 q 825 936 756 979 l 939 1103 l 996 1078 l 872 897 q 936 692 936 828 q 876 335 936 504 q 708 76 817 167 q 469 -14 599 -14 q 275 21 340 -14 l 153 -157 l 101 -126 l 226 58 m 778 867 q 636 903 728 903 q 474 847 544 903 q 310 599 369 767 q 251 276 251 432 q 279 136 251 183 l 778 867 m 324 92 q 467 63 371 63 q 636 121 563 63 q 792 363 738 201 q 847 688 847 524 q 819 819 847 768 l 324 92 m 594 1088 l 582 1160 l 886 1292 l 900 1211 l 594 1088 z "},"ǿ":{"ha":686,"x_min":90,"x_max":751,"o":"m 479 707 q 603 683 549 707 l 699 839 l 751 817 l 649 654 q 713 478 713 594 q 615 129 713 272 q 358 -14 517 -14 q 242 4 288 -14 l 143 -156 l 90 -133 l 194 32 q 131 206 131 86 q 230 560 131 413 q 479 707 329 707 m 479 635 q 289 507 364 635 q 214 206 214 379 q 242 106 214 142 l 561 615 q 479 635 526 635 m 358 60 q 553 183 478 60 q 628 479 628 306 q 601 579 628 540 l 446 333 l 285 74 q 358 60 313 60 m 414 835 l 406 899 l 708 1029 l 718 956 l 414 835 z "},"Ș":{"ha":694,"x_min":79,"x_max":821,"o":"m 304 -101 l 382 -101 l 253 -383 l 186 -383 l 304 -101 m 806 878 q 555 903 661 903 q 383 846 449 903 q 317 681 317 789 q 354 594 317 621 q 501 532 392 568 q 653 453 610 496 q 697 319 697 410 q 605 76 697 165 q 356 -14 513 -14 q 119 11 250 -14 l 79 18 l 94 88 q 368 63 257 63 q 544 129 479 63 q 610 314 610 196 q 578 403 610 376 q 438 465 546 431 q 280 543 331 500 q 229 675 229 586 q 322 899 229 819 q 571 979 415 979 q 786 953 679 979 l 821 943 l 806 878 z "},"ș":{"ha":593,"x_min":71,"x_max":669,"o":"m 651 615 q 439 635 522 635 q 307 590 356 635 q 258 483 258 546 q 285 428 258 446 q 406 388 313 410 q 542 336 500 365 q 585 236 585 307 q 501 51 585 115 q 286 -14 417 -14 q 103 8 190 -14 l 71 15 l 86 82 q 300 60 214 60 q 443 100 386 60 q 500 219 500 140 q 471 281 500 264 q 350 320 442 299 q 217 372 258 342 q 175 465 175 401 q 251 639 175 571 q 444 707 326 707 q 636 689 536 707 l 669 682 l 651 615 m 244 -101 l 322 -101 l 193 -383 l 126 -383 l 244 -101 z "},"Ț":{"ha":656,"x_min":151,"x_max":861,"o":"m 269 -101 l 347 -101 l 218 -383 l 151 -383 l 269 -101 m 218 889 l 236 965 l 861 965 l 843 889 l 574 889 l 368 0 l 283 0 l 488 889 l 218 889 z "},"ț":{"ha":438,"x_min":88,"x_max":576,"o":"m 249 131 q 325 60 249 60 l 436 68 l 431 3 q 297 -14 358 -14 q 198 19 235 -14 q 161 108 161 53 q 185 258 161 164 l 269 621 l 175 621 l 193 694 l 288 694 l 339 907 l 422 907 l 369 694 l 576 694 l 558 621 l 353 621 l 267 254 q 249 131 249 176 m 206 -101 l 283 -101 l 154 -383 l 88 -383 l 206 -101 z "},"ˆ":{"ha":1099,"x_min":544,"x_max":918,"o":"m 544 819 l 754 1021 l 797 1021 l 918 819 l 840 819 l 765 947 l 631 819 l 544 819 z "},"ˇ":{"ha":1099,"x_min":589,"x_max":968,"o":"m 751 819 l 707 819 l 589 1021 l 665 1021 l 744 889 l 882 1021 l 968 1021 l 751 819 z "},"˘":{"ha":601,"x_min":332,"x_max":721,"o":"m 410 1010 q 406 969 406 992 q 419 925 406 947 q 501 893 443 893 q 649 1010 617 893 l 721 1010 q 481 825 668 825 q 358 876 394 825 q 333 947 333 911 q 339 1010 333 983 l 410 1010 z "},"˙":{"ha":301,"x_min":313,"x_max":410,"o":"m 313 847 l 339 956 l 410 956 l 385 847 l 313 847 z "},"˚":{"ha":1099,"x_min":433,"x_max":689,"o":"m 492 988 q 589 1026 535 1026 q 665 999 643 1026 q 688 931 688 972 q 640 808 688 854 q 531 763 592 763 q 449 799 471 763 q 433 849 433 822 q 492 988 433 935 m 501 839 q 508 829 501 839 q 544 819 514 819 q 605 845 575 819 q 635 917 635 871 q 622 948 635 929 q 580 967 610 967 q 519 942 550 967 q 489 871 489 918 q 501 839 489 858 z "},"˛":{"ha":585,"x_min":190,"x_max":418,"o":"m 285 -281 q 190 -197 190 -281 q 242 -85 190 -147 q 346 15 294 -24 l 418 4 q 328 -83 375 -28 q 282 -175 282 -139 q 321 -206 282 -206 l 392 -197 l 383 -268 q 285 -281 325 -281 z "},"˜":{"ha":586,"x_min":313,"x_max":724,"o":"m 601 861 q 508 895 574 861 q 426 929 442 929 q 336 883 399 929 l 315 868 l 313 933 q 443 1003 396 1003 q 538 969 474 1003 q 614 935 601 935 q 699 978 639 935 l 718 992 l 724 928 q 601 861 649 861 z "},"˝":{"ha":917,"x_min":393,"x_max":925,"o":"m 681 814 l 642 863 l 881 1038 l 925 988 l 681 814 m 432 814 l 393 863 l 632 1038 l 675 988 l 432 814 z "},"π":{"ha":778,"x_min":121,"x_max":825,"o":"m 601 214 l 601 621 l 358 621 l 319 0 l 235 0 l 278 621 q 138 607 193 621 l 121 603 l 121 675 q 315 694 201 694 l 636 694 q 801 711 724 694 l 825 715 l 825 643 q 683 624 785 626 l 683 214 q 709 97 683 125 q 811 69 735 69 l 811 -4 q 643 39 685 -4 q 601 214 601 82 z "},"Ẁ":{"ha":1139,"x_min":228,"x_max":1313,"o":"m 703 1285 l 946 1153 l 910 1093 l 663 1215 l 703 1285 m 264 965 l 349 965 l 308 78 l 350 78 l 739 951 l 831 951 l 810 78 l 849 78 l 1226 965 l 1313 965 l 897 0 l 735 0 l 757 818 l 394 0 l 228 0 l 264 965 z "},"ẁ":{"ha":1004,"x_min":200,"x_max":1119,"o":"m 529 1019 l 774 889 l 735 832 l 489 954 l 529 1019 m 203 694 l 286 694 l 282 72 l 306 72 l 607 681 l 707 681 l 721 72 l 746 72 l 1035 694 l 1119 694 l 797 0 l 643 0 l 632 574 l 351 0 l 200 0 l 203 694 z "},"Ẃ":{"ha":1139,"x_min":228,"x_max":1313,"o":"m 701 1097 l 690 1160 l 994 1292 l 1007 1219 l 701 1097 m 264 965 l 349 965 l 308 78 l 350 78 l 739 951 l 831 951 l 810 78 l 849 78 l 1226 965 l 1313 965 l 897 0 l 735 0 l 757 818 l 394 0 l 228 0 l 264 965 z "},"ẃ":{"ha":1004,"x_min":200,"x_max":1119,"o":"m 203 694 l 286 694 l 282 72 l 306 72 l 607 681 l 707 681 l 721 72 l 746 72 l 1035 694 l 1119 694 l 797 0 l 643 0 l 632 574 l 351 0 l 200 0 l 203 694 m 565 835 l 557 899 l 860 1029 l 869 956 l 565 835 z "},"Ẅ":{"ha":1139,"x_min":228,"x_max":1313,"o":"m 656 1139 l 681 1254 l 750 1254 l 722 1139 l 656 1139 m 911 1139 l 939 1254 l 1007 1254 l 979 1139 l 911 1139 m 264 965 l 349 965 l 308 78 l 350 78 l 739 951 l 831 951 l 810 78 l 849 78 l 1226 965 l 1313 965 l 897 0 l 735 0 l 757 818 l 394 0 l 228 0 l 264 965 z "},"ẅ":{"ha":1004,"x_min":200,"x_max":1119,"o":"m 203 694 l 286 694 l 282 72 l 306 72 l 607 681 l 707 681 l 721 72 l 746 72 l 1035 694 l 1119 694 l 797 0 l 643 0 l 632 574 l 351 0 l 200 0 l 203 694 m 524 868 l 550 982 l 618 982 l 592 868 l 524 868 m 772 868 l 797 982 l 865 982 l 839 868 l 772 868 z "},"ẫ":{"ha":685,"x_min":126,"x_max":819,"o":"m 300 -14 q 126 182 126 -14 q 214 528 126 364 q 324 658 256 607 q 475 708 393 708 q 696 683 550 708 l 744 675 l 639 224 q 606 38 619 146 l 600 1 l 519 -1 q 546 157 540 128 q 531 138 540 150 q 495 97 522 126 q 440 46 468 68 q 374 5 413 24 q 300 -14 335 -14 m 649 614 q 472 635 549 635 q 332 558 394 635 q 241 381 269 482 q 213 201 213 281 q 238 90 213 121 q 315 60 264 60 q 426 108 367 60 q 525 206 486 157 l 564 256 l 649 614 m 697 1021 q 604 1055 669 1021 q 522 1089 539 1089 q 432 1043 494 1089 l 411 1028 l 408 1093 q 539 1163 492 1163 q 633 1128 569 1163 q 711 1094 697 1094 q 794 1136 738 1094 l 814 1151 l 819 1088 q 697 1021 744 1021 m 356 778 l 565 979 l 608 979 l 729 778 l 651 778 l 576 906 l 442 778 l 356 778 z "},"Ằ":{"ha":771,"x_min":38,"x_max":864,"o":"m 613 1489 l 857 1358 l 818 1301 l 572 1424 l 613 1489 m 38 0 l 531 965 l 706 965 l 738 0 l 653 0 l 642 265 l 261 265 l 124 0 l 38 0 m 579 889 l 299 340 l 642 340 l 624 889 l 579 889 m 563 1225 q 560 1185 560 1208 q 579 1141 560 1161 q 649 1121 599 1121 q 738 1150 699 1121 q 790 1225 778 1179 l 864 1225 q 781 1099 840 1143 q 637 1054 722 1054 q 513 1097 551 1054 q 485 1181 485 1128 q 489 1225 485 1201 l 563 1225 z "},"ễ":{"ha":636,"x_min":129,"x_max":794,"o":"m 672 1021 q 579 1055 644 1021 q 497 1089 514 1089 q 407 1043 469 1089 l 386 1028 l 383 1093 q 514 1163 467 1163 q 608 1128 544 1163 q 686 1094 672 1094 q 769 1136 713 1094 l 789 1151 l 794 1088 q 672 1021 719 1021 m 214 196 q 214 165 214 196 q 252 97 214 133 q 346 61 290 61 q 550 86 453 61 l 583 96 l 578 28 q 347 -14 457 -14 q 129 192 129 -14 q 219 538 129 381 q 336 660 263 614 q 503 707 410 707 q 699 549 699 707 q 604 377 699 426 q 308 328 510 328 l 231 328 q 214 196 214 258 m 325 396 q 547 428 478 396 q 615 549 615 461 q 499 636 615 636 q 243 396 317 636 l 325 396 m 335 778 l 544 979 l 588 979 l 708 778 l 631 778 l 556 906 l 421 778 l 335 778 z "},"ỗ":{"ha":686,"x_min":131,"x_max":804,"o":"m 479 707 q 713 478 713 707 q 615 129 713 272 q 358 -14 517 -14 q 131 206 131 -14 q 230 560 131 413 q 479 707 329 707 m 358 60 q 553 183 478 60 q 628 479 628 306 q 590 592 628 550 q 479 635 553 635 q 289 507 364 635 q 214 206 214 379 q 358 60 214 60 m 682 1021 q 588 1055 654 1021 q 507 1089 522 1089 q 417 1043 479 1089 l 396 1028 l 393 1093 q 524 1163 476 1163 q 618 1128 554 1163 q 694 1094 682 1094 q 779 1136 722 1094 l 799 1151 l 804 1088 q 682 1021 729 1021 m 333 778 l 543 979 l 586 979 l 707 778 l 629 778 l 554 906 l 419 778 l 333 778 z "},"Ỳ":{"ha":681,"x_min":240,"x_max":882,"o":"m 475 1285 l 718 1153 l 682 1093 l 435 1215 l 475 1285 m 882 965 l 472 414 l 375 0 l 293 0 l 390 422 l 240 965 l 326 965 l 450 497 l 790 965 l 882 965 z "},"ỳ":{"ha":628,"x_min":147,"x_max":751,"o":"m 349 1019 l 593 889 l 554 832 l 308 954 l 349 1019 m 197 694 l 279 694 l 299 72 l 346 72 l 664 694 l 751 694 l 232 -311 l 147 -311 l 311 0 l 221 0 l 197 694 z "},"Ỹ":{"ha":681,"x_min":240,"x_max":882,"o":"m 694 1136 q 601 1170 667 1136 q 519 1204 536 1204 q 429 1158 492 1204 l 408 1143 l 406 1208 q 536 1278 489 1278 q 631 1244 567 1278 q 708 1210 694 1210 q 792 1253 732 1210 l 811 1267 l 817 1203 q 694 1136 742 1136 m 882 965 l 472 414 l 375 0 l 293 0 l 390 422 l 240 965 l 326 965 l 450 497 l 790 965 l 882 965 z "},"ỹ":{"ha":628,"x_min":147,"x_max":751,"o":"m 611 861 q 518 895 583 861 q 436 929 453 929 q 346 883 408 929 l 325 868 l 322 933 q 453 1003 406 1003 q 547 969 483 1003 q 625 935 611 935 q 708 978 649 935 l 728 992 l 733 928 q 611 861 658 861 m 197 694 l 279 694 l 299 72 l 346 72 l 664 694 l 751 694 l 232 -311 l 147 -311 l 311 0 l 221 0 l 197 694 z "},"–":{"ha":849,"x_min":164,"x_max":858,"o":"m 164 410 l 858 410 l 858 335 l 164 335 l 164 410 z "},"—":{"ha":1543,"x_min":164,"x_max":1553,"o":"m 164 410 l 1553 410 l 1553 335 l 164 335 l 164 410 z "},"‘":{"ha":253,"x_min":211,"x_max":419,"o":"m 356 964 l 419 964 l 297 665 l 211 665 l 356 964 z "},"’":{"ha":253,"x_min":214,"x_max":422,"o":"m 278 667 l 214 667 l 336 965 l 422 965 l 278 667 z "},"‚":{"ha":247,"x_min":-3,"x_max":206,"o":"m 61 -176 l -3 -176 l 119 122 l 206 122 l 61 -176 z "},"“":{"ha":461,"x_min":210,"x_max":628,"o":"m 354 965 l 418 965 l 296 667 l 210 667 l 354 965 m 564 965 l 628 965 l 506 667 l 419 667 l 564 965 z "},"”":{"ha":461,"x_min":214,"x_max":631,"o":"m 278 667 l 214 667 l 336 965 l 422 965 l 278 667 m 486 667 l 422 667 l 544 965 l 631 965 l 486 667 z "},"„":{"ha":443,"x_min":-18,"x_max":401,"o":"m 338 122 l 401 122 l 279 -176 l 193 -176 l 338 122 m 126 122 l 190 122 l 68 -176 l -18 -176 l 126 122 z "},"†":{"ha":614,"x_min":179,"x_max":732,"o":"m 179 604 l 199 692 l 425 689 l 489 958 l 567 958 l 506 692 l 732 692 l 713 604 l 483 607 l 315 -106 l 239 -106 l 404 604 l 179 604 z "},"‡":{"ha":671,"x_min":104,"x_max":764,"o":"m 269 -106 l 332 161 l 104 161 l 124 246 l 351 244 l 436 604 l 211 604 l 231 692 l 457 689 l 521 958 l 599 958 l 536 692 l 764 692 l 743 604 l 515 607 l 431 246 l 658 246 l 638 161 l 410 164 l 347 -106 l 269 -106 z "},"•":{"ha":683,"x_min":249,"x_max":596,"o":"m 249 149 l 249 549 l 596 549 l 596 149 l 249 149 z "},"…":{"ha":899,"x_min":79,"x_max":853,"o":"m 79 0 l 111 139 l 196 139 l 164 0 l 79 0 m 410 0 l 442 139 l 526 139 l 494 0 l 410 0 m 736 0 l 768 139 l 853 139 l 821 0 l 736 0 z "},"‰":{"ha":1128,"x_min":217,"x_max":1142,"o":"m 408 913 q 299 785 329 913 q 288 715 288 743 q 343 650 288 650 q 453 769 422 650 q 465 851 465 824 q 408 913 465 913 m 221 7 l 722 981 l 782 964 l 281 -7 l 221 7 m 228 785 q 424 974 275 974 q 536 864 536 974 q 525 783 536 829 q 449 638 501 686 q 328 589 397 589 q 231 638 258 589 q 217 701 217 664 q 228 785 217 739 m 574 0 q 461 115 461 0 q 472 196 461 150 q 668 385 519 385 q 782 275 782 385 q 771 194 782 240 q 695 49 747 97 q 574 0 643 0 m 533 128 q 588 61 533 61 q 700 194 667 61 q 710 258 710 232 q 653 324 710 324 q 585 292 611 324 q 547 208 560 261 q 533 128 533 156 m 932 0 q 819 115 819 0 q 831 196 819 150 q 1026 385 878 385 q 1140 275 1140 385 q 1129 194 1140 240 q 1053 49 1106 97 q 932 0 1001 0 m 1068 261 q 1011 324 1068 324 q 944 292 969 324 q 905 208 918 261 q 892 128 892 156 q 946 61 892 61 q 1058 194 1025 61 q 1068 261 1068 233 z "},"‹":{"ha":364,"x_min":121,"x_max":421,"o":"m 421 558 l 394 471 l 206 343 l 332 201 l 308 124 l 121 325 l 136 368 l 421 558 z "},"›":{"ha":364,"x_min":101,"x_max":401,"o":"m 101 124 l 128 211 l 317 339 l 190 481 l 214 558 l 401 357 l 386 314 l 101 124 z "},"⁄":{"ha":11,"x_min":-214,"x_max":457,"o":"m -135 -33 l -214 -4 l 379 954 l 457 925 l -135 -33 z "},"⁰":{"ha":389,"x_min":218,"x_max":574,"o":"m 339 1076 q 456 1110 379 1110 q 572 992 572 1110 q 558 881 572 946 q 456 685 521 733 q 339 650 410 650 q 219 775 219 650 q 235 882 219 821 q 339 1076 271 1025 m 496 975 q 436 1042 496 1042 q 363 1005 392 1042 q 315 894 333 968 q 297 785 297 821 q 357 719 297 719 q 429 756 400 719 q 477 865 458 792 q 496 975 496 939 z "},"⁴":{"ha":389,"x_min":206,"x_max":538,"o":"m 388 664 l 404 735 l 206 735 l 222 799 l 403 1097 l 485 1097 l 304 804 l 421 804 l 457 925 l 526 925 l 496 804 l 538 804 l 521 735 l 479 735 l 461 664 l 388 664 z "},"⁵":{"ha":389,"x_min":206,"x_max":585,"o":"m 454 829 q 409 872 454 872 q 317 847 364 872 l 258 854 l 332 1097 l 585 1097 l 569 1029 l 381 1029 l 343 914 q 437 939 382 939 q 519 906 492 939 q 536 856 536 885 q 531 801 536 828 q 346 651 492 651 q 226 665 296 651 l 206 669 l 229 735 q 344 719 300 719 q 450 800 431 719 q 454 829 454 817 z "},"⁶":{"ha":389,"x_min":229,"x_max":589,"o":"m 429 947 q 543 853 543 947 q 536 806 543 832 q 347 650 497 650 q 229 774 229 650 q 244 878 229 818 q 331 1056 276 1003 q 474 1110 385 1110 q 572 1100 511 1110 l 589 1097 l 569 1033 q 457 1043 507 1043 q 335 925 365 1043 q 429 947 392 947 m 465 840 q 417 882 465 882 q 342 869 367 882 q 317 856 317 857 q 307 786 307 815 q 363 718 307 718 q 460 804 438 718 q 465 840 465 825 z "},"⁷":{"ha":389,"x_min":238,"x_max":581,"o":"m 282 1025 l 300 1097 l 581 1097 l 556 999 l 321 651 l 238 671 l 469 994 l 476 1025 l 282 1025 z "},"⁸":{"ha":389,"x_min":204,"x_max":586,"o":"m 454 1110 q 585 1026 585 1110 q 581 993 585 1011 q 488 890 561 910 q 540 819 540 874 q 536 785 540 804 q 468 679 517 708 q 339 650 419 650 q 204 740 204 650 q 210 779 204 758 q 313 892 232 864 q 265 961 265 910 q 269 994 265 976 q 454 1110 299 1110 m 285 760 q 285 738 285 760 q 363 715 285 715 q 458 785 442 715 q 461 807 461 797 q 413 857 461 842 l 371 857 q 314 831 333 847 q 285 760 285 804 m 438 1046 q 344 989 360 1046 q 342 967 342 978 q 349 944 342 956 q 386 921 357 932 l 428 921 q 481 946 464 932 q 506 994 506 967 q 493 1034 506 1022 q 438 1046 481 1046 z "},"⁹":{"ha":389,"x_min":206,"x_max":568,"o":"m 336 719 q 464 835 432 719 q 353 815 407 815 q 271 854 299 815 q 254 906 254 878 q 261 961 254 935 q 328 1071 278 1032 q 450 1110 378 1110 q 567 985 567 1110 q 551 878 567 940 q 469 701 521 751 q 324 650 417 650 q 222 661 282 650 l 206 665 l 226 728 q 336 719 285 719 m 335 935 q 389 879 335 879 q 467 897 419 879 l 482 903 q 492 972 492 944 q 435 1043 492 1043 q 338 961 358 1043 q 335 935 335 947 z "},"₀":{"ha":389,"x_min":67,"x_max":422,"o":"m 188 413 q 304 446 228 446 q 421 328 421 446 q 407 217 421 282 q 304 21 369 69 q 188 -14 258 -14 q 68 111 68 -14 q 83 218 68 157 q 188 413 119 361 m 344 311 q 285 378 344 378 q 211 341 240 378 q 164 231 182 304 q 146 121 146 157 q 206 56 146 56 q 278 92 249 56 q 326 201 307 128 q 344 311 344 275 z "},"₁":{"ha":389,"x_min":119,"x_max":354,"o":"m 119 199 l 283 294 l 354 294 l 247 -139 l 172 -139 l 260 213 l 140 143 l 119 199 z "},"₂":{"ha":389,"x_min":17,"x_max":381,"o":"m 299 197 q 238 236 299 236 q 136 225 200 236 l 114 222 l 128 290 q 269 307 211 307 q 379 226 379 307 q 246 24 379 126 l 131 -71 l 317 -71 l 300 -139 l 17 -139 l 33 -72 l 193 57 q 265 121 240 94 q 294 168 289 147 q 299 197 299 189 z "},"₃":{"ha":389,"x_min":7,"x_max":382,"o":"m 290 88 q 342 28 342 71 q 335 -19 342 8 q 156 -153 303 -153 q 29 -142 104 -153 l 7 -137 l 28 -72 q 172 -83 103 -83 q 258 -18 242 -83 q 263 7 263 -4 q 204 50 263 50 l 114 50 l 129 115 l 219 115 q 266 136 242 115 q 297 185 290 157 q 291 226 304 213 q 244 239 278 239 q 128 231 186 239 l 108 228 l 119 293 q 263 307 203 307 q 381 229 381 307 q 347 133 381 181 q 290 88 326 106 z "},"₄":{"ha":389,"x_min":31,"x_max":363,"o":"m 213 -139 l 229 -68 l 31 -68 l 47 -4 l 228 294 l 310 294 l 129 1 l 246 1 l 282 122 l 351 122 l 321 1 l 363 1 l 346 -68 l 304 -68 l 286 -139 l 213 -139 z "},"₅":{"ha":389,"x_min":11,"x_max":390,"o":"m 260 26 q 215 69 260 69 q 122 44 169 69 l 64 51 l 138 294 l 390 294 l 375 226 l 186 226 l 149 111 q 242 136 188 136 q 325 103 297 136 q 342 53 342 82 q 336 -1 342 25 q 151 -151 297 -151 q 32 -137 101 -151 l 11 -133 l 35 -68 q 150 -83 106 -83 q 256 -3 236 -83 q 260 26 260 14 z "},"₆":{"ha":389,"x_min":42,"x_max":401,"o":"m 242 144 q 356 50 356 144 q 349 3 356 29 q 160 -153 310 -153 q 42 -29 42 -153 q 57 75 42 15 q 143 253 89 200 q 286 307 197 307 q 383 297 324 307 l 401 294 l 382 231 q 269 240 319 240 q 147 122 178 240 q 242 144 204 144 m 278 38 q 229 79 278 79 q 154 67 179 79 q 129 53 129 54 q 119 -17 119 13 q 175 -85 119 -85 q 272 1 250 -85 q 278 38 278 22 z "},"₇":{"ha":389,"x_min":60,"x_max":403,"o":"m 104 222 l 122 294 l 403 294 l 378 196 l 143 -151 l 60 -132 l 292 192 l 299 222 l 104 222 z "},"₈":{"ha":389,"x_min":19,"x_max":401,"o":"m 269 307 q 400 224 400 307 q 396 190 400 208 q 303 88 376 107 q 356 17 356 71 q 351 -18 356 1 q 283 -124 332 -94 q 154 -153 235 -153 q 19 -62 19 -153 q 25 -24 19 -44 q 128 89 47 61 q 81 158 81 107 q 85 192 81 174 q 269 307 114 307 m 100 -43 q 100 -65 100 -43 q 178 -87 100 -87 q 274 -18 256 -87 q 276 4 276 -6 q 228 54 276 39 l 186 54 q 131 28 149 44 q 100 -43 100 1 m 253 243 q 160 186 175 243 q 157 164 157 175 q 165 141 157 153 q 201 118 172 129 l 243 118 q 296 143 279 129 q 321 192 321 164 q 308 231 321 219 q 253 243 296 243 z "},"₉":{"ha":389,"x_min":18,"x_max":381,"o":"m 149 -83 q 276 32 244 -83 q 165 13 219 13 q 83 51 111 13 q 67 103 67 75 q 74 158 67 132 q 140 268 90 229 q 263 307 190 307 q 379 182 379 307 q 364 75 379 138 q 281 -102 333 -51 q 136 -153 229 -153 q 36 -142 94 -153 l 18 -137 l 39 -75 q 149 -83 97 -83 m 147 132 q 201 76 147 76 q 279 94 229 76 l 294 100 q 304 169 304 142 q 247 240 304 240 q 150 158 171 240 q 147 132 147 144 z "},"€":{"ha":778,"x_min":142,"x_max":889,"o":"m 461 -14 q 210 250 210 -14 q 211 300 210 283 l 142 300 l 158 369 l 218 369 q 251 529 231 463 l 194 529 l 211 599 l 275 599 q 432 840 332 747 q 671 932 532 932 q 858 910 757 932 l 889 903 l 871 836 q 665 858 764 858 q 490 788 567 858 q 363 599 413 717 l 756 599 l 740 529 l 338 529 q 301 369 311 447 l 704 369 l 689 300 l 296 300 q 294 253 294 283 q 338 108 294 154 q 474 61 381 61 q 657 78 565 61 l 688 83 l 683 15 q 461 -14 565 -14 z "},"™":{"ha":975,"x_min":306,"x_max":1011,"o":"m 306 811 l 306 871 l 583 871 l 583 811 l 482 811 l 482 461 l 418 461 l 418 811 l 306 811 m 628 460 l 628 871 l 717 871 l 818 564 l 924 871 l 1011 871 l 1011 460 l 950 460 l 950 789 l 846 478 l 790 478 l 690 789 l 690 460 l 628 460 z "},"Ω":{"ha":778,"x_min":132,"x_max":788,"o":"m 132 63 l 314 63 q 270 143 296 93 q 201 315 244 193 q 158 519 158 438 q 223 833 158 735 q 460 931 288 931 q 697 833 632 931 q 761 519 761 735 q 722 323 761 438 q 644 136 683 208 l 604 63 l 788 63 l 788 -12 l 518 -12 l 518 51 q 560 138 535 85 q 629 310 586 192 q 672 496 672 429 q 631 773 672 692 q 460 854 590 854 q 304 797 356 854 q 251 625 261 751 q 247 501 247 574 q 285 318 247 429 q 361 129 324 207 l 400 51 l 400 -12 l 132 -12 l 132 63 z "},"∂":{"ha":778,"x_min":186,"x_max":804,"o":"m 486 1017 q 727 897 650 1017 q 804 509 804 776 q 730 115 804 242 q 492 -12 656 -12 q 186 297 186 -12 q 263 514 186 433 q 474 594 340 594 q 681 561 572 594 l 715 551 q 656 850 711 758 q 471 942 600 942 q 372 925 426 942 q 283 892 317 908 l 251 876 l 246 944 q 362 994 292 972 q 486 1017 432 1017 m 717 475 q 488 519 592 519 q 328 458 383 519 q 274 290 274 397 q 329 123 274 183 q 497 63 385 63 q 661 164 608 63 q 717 475 714 265 z "},"∆":{"ha":778,"x_min":119,"x_max":742,"o":"m 742 0 l 119 0 l 119 63 l 351 917 l 508 917 l 742 63 l 742 0 m 447 842 l 413 842 l 207 75 l 653 75 l 447 842 z "},"∏":{"ha":778,"x_min":186,"x_max":881,"o":"m 692 -219 l 692 968 l 374 968 l 374 -219 l 288 -219 l 288 968 l 186 968 l 186 1044 l 881 1044 l 881 968 l 776 968 l 776 -219 l 692 -219 z "},"∑":{"ha":778,"x_min":161,"x_max":804,"o":"m 161 1044 l 804 1044 l 804 967 l 250 967 l 250 933 l 621 461 l 621 397 l 250 -104 l 250 -143 l 804 -143 l 804 -219 l 161 -219 l 161 -93 l 542 431 l 161 919 l 161 1044 z "},"−":{"ha":778,"x_min":174,"x_max":764,"o":"m 174 310 l 174 388 l 764 388 l 764 310 l 174 310 z "},"√":{"ha":778,"x_min":163,"x_max":943,"o":"m 163 544 l 163 621 l 318 621 l 508 -118 l 521 -118 l 857 1075 l 943 1075 l 581 -192 l 444 -192 l 247 544 l 163 544 z "},"∞":{"ha":778,"x_min":136,"x_max":828,"o":"m 304 168 q 136 406 136 168 q 178 581 136 519 q 294 643 219 643 q 409 604 368 643 q 482 485 450 565 q 553 604 513 565 q 669 643 594 643 q 786 581 744 643 q 828 406 828 519 q 658 168 828 168 q 553 206 594 168 q 482 324 513 244 q 411 201 449 233 q 304 168 374 168 m 310 567 q 218 406 218 567 q 310 244 218 244 q 358 251 339 244 q 392 278 376 257 q 414 317 407 299 q 450 406 442 381 q 436 438 446 414 q 422 472 426 463 q 408 501 418 482 q 390 528 399 519 q 369 547 382 538 q 310 567 347 567 m 653 244 q 746 406 746 244 q 653 567 746 567 q 564 514 596 567 q 533 451 549 489 q 513 406 517 414 q 528 368 517 396 q 546 329 540 340 q 564 298 551 318 q 588 269 576 278 q 653 244 618 244 z "},"∫":{"ha":778,"x_min":221,"x_max":747,"o":"m 525 -6 q 481 -199 525 -143 q 340 -256 436 -256 l 221 -246 l 225 -174 q 336 -179 283 -179 q 415 -141 389 -179 q 440 -4 440 -103 l 440 793 q 485 1017 440 953 q 624 1082 529 1082 q 731 1074 678 1082 l 747 1071 l 743 1000 q 635 1007 690 1007 q 553 959 581 1007 q 525 793 525 911 l 525 -6 z "},"≈":{"ha":778,"x_min":169,"x_max":764,"o":"m 607 376 q 461 422 565 376 q 331 468 357 468 q 208 417 283 468 l 185 400 l 169 471 q 331 546 256 546 q 474 500 371 546 q 603 454 576 454 q 725 504 651 454 l 749 521 l 764 451 q 607 376 681 376 m 607 132 q 461 178 565 132 q 331 224 357 224 q 208 172 283 224 l 185 156 l 169 226 q 331 301 256 301 q 474 256 371 301 q 603 210 576 210 q 725 260 651 210 l 749 276 l 764 207 q 607 132 681 132 z "},"≠":{"ha":778,"x_min":169,"x_max":765,"o":"m 169 433 l 169 511 l 486 511 l 582 728 l 651 700 l 568 511 l 765 511 l 765 433 l 535 433 l 460 263 l 765 263 l 765 185 l 425 185 l 332 -29 l 263 -1 l 343 185 l 169 185 l 169 263 l 378 263 l 453 433 l 169 433 z "},"≤":{"ha":778,"x_min":154,"x_max":742,"o":"m 742 599 l 254 439 l 742 265 l 742 181 l 154 397 l 154 475 l 742 685 l 742 599 m 154 32 l 154 108 l 742 108 l 742 32 l 154 32 z "},"≥":{"ha":778,"x_min":175,"x_max":763,"o":"m 663 439 l 175 599 l 175 685 l 763 475 l 763 397 l 175 181 l 175 265 l 663 439 m 763 108 l 763 32 l 175 32 l 175 108 l 763 108 z "},"◊":{"ha":778,"x_min":182,"x_max":804,"o":"m 714 458 l 513 688 l 563 688 l 804 458 l 563 229 l 513 229 l 714 458 m 182 458 l 424 688 l 471 688 l 272 458 l 471 229 l 424 229 l 182 458 m 510 225 l 475 225 l 471 229 l 513 229 l 510 225 m 471 688 l 475 692 l 510 692 l 513 688 l 471 688 z "},"":{"ha":274,"x_min":-128,"x_max":339,"o":"m 94 0 l 256 694 l 339 694 l 178 0 q 99 -207 142 -157 q -100 -329 57 -257 l -128 -261 q 34 -157 1 -196 q 94 0 67 -118 z "},"":{"ha":224,"x_min":-51,"x_max":144,"o":"m -51 -383 l 67 -101 l 144 -101 l 15 -383 l -51 -383 z "}}}
